<?xml version="1.0" encoding="utf-8"?>
<!-- Generator: Adobe Illustrator 27.7.0, SVG Export Plug-In . SVG Version: 6.00 Build 0)  -->
<svg version="1.1" id="Layer_1" xmlns="http://www.w3.org/2000/svg" xmlns:xlink="http://www.w3.org/1999/xlink" x="0px" y="0px"
	 viewBox="0 0 180 180" style="enable-background:new 0 0 180 180;" xml:space="preserve">
<style type="text/css">
	.st0{fill:#F6F0FC;}
	.st1{fill:#9C4DD6;}
</style>
<circle class="st0" cx="90" cy="90" r="90"/>
<g>
	<path class="st1" d="M114.2,40c2.97,1.11,4.38,3.26,4.13,6.41c-0.09,1.17,0.32,1.74,1.42,2.13c1.57,0.55,2.97,1.48,4.29,2.49
		c0.52,0.4,0.95,0.4,1.49,0.07c1-0.6,1.98-1.25,3.18-1.42c2.28-0.32,4.13,0.42,5.41,2.32c1.03,1.53,1.96,3.15,2.82,4.79
		c1.18,2.25,0.42,5.14-1.66,6.61c-0.66,0.47-1.37,0.88-2.08,1.27c-0.52,0.28-0.65,0.66-0.57,1.2c0.27,1.84,0.28,3.69,0,5.53
		c-0.1,0.65,0.11,1.05,0.68,1.34c0.58,0.3,1.14,0.63,1.68,0.99c2.34,1.56,3.18,4.57,1.88,7.05c-0.84,1.61-1.76,3.19-2.76,4.71
		c-1.58,2.4-4.69,3.17-7.23,1.59c-1.57-0.98-2.73-1.12-4.15,0.17c-0.95,0.87-2.18,1.43-3.42,1.85c-0.79,0.27-1.04,0.73-0.98,1.53
		c0.05,0.71,0.05,1.44-0.05,2.14c-0.38,2.61-2.22,4.46-4.95,4.74c-2.06,0.21-4.16,0.26-6.23-0.07c-2.61-0.42-4.59-2.59-4.44-5.24
		c0.11-1.97-0.38-3.16-2.37-3.71c-1.05-0.29-1.96-1.02-2.84-1.68c-0.38-0.29-0.61-0.24-0.84,0.18c-2.03,3.82-4.94,6.82-8.66,9.02
		c0.12,0.32,0.38,0.3,0.58,0.37c11.71,4.28,18.78,12.52,21.15,24.76c0.41,2.14,0.46,4.32,0.45,6.51c-0.02,3.12,0,6.24-0.01,9.37
		c-0.01,2.19-0.82,2.98-3,2.98c-20.52,0-41.05,0-61.57,0c-2.33,0-3.04-0.7-3.04-3.01c0-3.71-0.01-7.42,0-11.12
		c0.05-13.11,8.52-24.99,20.87-29.33c0.43-0.15,1.15-0.09,1.2-0.62c0.03-0.4-0.65-0.55-1.02-0.81c-5.81-4.09-9.14-9.65-9.94-16.71
		c-1.33-11.65,7-22.99,19.7-24.74c3.67-0.51,7.27-0.16,10.75,1.12c0.64,0.24,1.02,0.15,1.33-0.48c0.31-0.64,0.7-1.25,1.07-1.86
		c1.69-2.83,4.86-3.74,7.65-2c1.46,0.91,2.55,1.09,3.92-0.14c1.05-0.95,2.42-1.51,3.76-2.03c0.63-0.24,0.88-0.6,0.81-1.24
		c-0.03-0.26,0.01-0.52-0.01-0.78c-0.24-3.35,1.47-5.35,4.18-6.24C109.25,40,111.72,40,114.2,40z M76.22,135.58
		c2.21,0,4.42,0,6.64,0c7.19,0,14.38-0.01,21.57,0.02c0.88,0,1.22-0.24,1.18-1.15c-0.06-1.4,0-2.8-0.02-4.2
		c-0.04-3.02,0.13-6.04-0.4-9.05c-1.9-10.82-10.84-19.75-21.69-21.66c-3.33-0.59-6.68-0.34-10.02-0.39
		c-3.6-0.05-7.07,0.65-10.32,2.18c-10.22,4.82-15.73,12.86-16.24,24.19c-0.13,2.86-0.03,5.72-0.03,8.59c0,1.46,0,1.46,1.42,1.46
		C57.61,135.58,66.91,135.58,76.22,135.58z M76.16,94.78c11.01-0.15,18.59-8.31,18.6-18.54c0.01-10.85-8.93-18.46-18.57-18.43
		c-9.76,0.03-18.48,7.69-18.48,18.4C57.7,86.67,66.02,94.65,76.16,94.78z M113.97,47.52c0-0.52,0.01-1.04,0-1.56
		c-0.02-1.21-0.38-1.59-1.57-1.6c-1.3-0.02-2.6-0.02-3.9,0c-1.13,0.01-1.59,0.46-1.63,1.6c-0.03,1.1,0,2.21-0.02,3.32
		c-0.02,1.31-0.48,2.06-1.69,2.43c-2.69,0.83-5.05,2.2-7.15,4.06c-0.93,0.83-1.77,0.88-2.87,0.28c-0.94-0.51-1.86-1.07-2.81-1.58
		c-1.31-0.71-1.81-0.57-2.52,0.71c-0.21,0.37-0.36,0.77-0.6,1.12c-0.45,0.66-0.24,1.03,0.37,1.5c7.72,5.89,10.82,13.64,9.15,23.23
		c-0.15,0.85,0.07,1.34,0.71,1.82c1.63,1.22,3.41,2.14,5.35,2.77c1.89,0.61,2.23,1.08,2.23,3.11c0,1.01-0.01,2.02,0.01,3.02
		c0.01,0.86,0.45,1.32,1.33,1.32c1.43,0,2.86,0.02,4.29,0c1.07-0.02,1.45-0.42,1.47-1.5c0.02-1.17-0.01-2.34,0.01-3.51
		c0.02-1.23,0.45-1.87,1.64-2.24c2.68-0.84,5.07-2.17,7.15-4.06c0.9-0.82,1.89-0.93,2.96-0.32c1.04,0.6,2.1,1.18,3.14,1.78
		c0.76,0.44,1.37,0.31,1.82-0.45c0.71-1.2,1.44-2.4,2.12-3.62c0.53-0.95,0.38-1.46-0.56-2.02c-0.97-0.59-1.98-1.13-2.96-1.7
		c-1.16-0.68-1.51-1.35-1.23-2.67c0.58-2.75,0.56-5.48-0.02-8.22c-0.25-1.19,0.12-1.92,1.16-2.53c0.98-0.58,1.98-1.12,2.97-1.69
		c1.04-0.6,1.18-1.03,0.6-2.05c-0.63-1.1-1.27-2.2-1.93-3.28c-0.61-1-1.24-1.16-2.29-0.58c-0.88,0.49-1.75,1-2.63,1.49
		c-1.55,0.85-2.2,0.79-3.51-0.36c-1.61-1.41-3.39-2.54-5.39-3.27C114.39,51.21,113.85,51.42,113.97,47.52z"/>
	<path class="st1" d="M110.29,80.31c-6.44-0.01-11.61-5.18-11.58-11.59c0.02-6.42,5.15-11.61,11.46-11.6
		c6.56,0.01,11.72,5.17,11.69,11.69C121.84,75.18,116.66,80.32,110.29,80.31z M110.2,61.5c-4.11,0-7.13,3.03-7.13,7.15
		c-0.01,4.09,3.18,7.37,7.15,7.36c4.03-0.02,7.28-3.25,7.27-7.24C117.49,64.62,114.36,61.5,110.2,61.5z"/>
</g>
</svg>
