<?xml version="1.0" encoding="utf-8"?>
<!-- Generator: Adobe Illustrator 27.7.0, SVG Export Plug-In . SVG Version: 6.00 Build 0)  -->
<svg version="1.1" id="Layer_1" xmlns="http://www.w3.org/2000/svg" xmlns:xlink="http://www.w3.org/1999/xlink" x="0px" y="0px"
	 viewBox="0 0 180 180" style="enable-background:new 0 0 180 180;" xml:space="preserve">
<style type="text/css">
	.st0{fill:#FFFFFF;}
	.st1{fill:#5391FD;}
</style>
<rect class="st0" width="180" height="180"/>
<g>
	<path class="st1" d="M67.94,69.8c-3.91,0-7.71,0.01-11.5-0.01c-0.69,0-0.87,0.44-1.12,0.92c-1.47,2.9-3.87,4.43-7.08,4.54
		c-3.98,0.14-7.46-2.82-8.12-6.74c-0.65-3.88,1.66-7.71,5.43-8.97c3.76-1.26,7.89,0.38,9.67,3.95c0.44,0.87,0.93,1.12,1.85,1.12
		c6.93-0.04,13.86-0.04,20.8,0c1.04,0.01,1.34-0.33,1.3-1.33c-0.07-1.54-0.03-3.1-0.01-4.64c0.02-2,1.08-3.1,3.05-3.11
		c5.17-0.02,10.35-0.02,15.52,0c2.01,0.01,3.05,1.06,3.07,3.08c0.02,1.69,0.02,3.38,0,5.07c-0.01,0.69,0.26,0.92,0.93,0.92
		c7.21-0.02,14.43-0.02,21.64,0c0.62,0,0.93-0.26,1.21-0.79c1.81-3.52,5.2-5.25,8.77-4.55c3.78,0.75,6.29,3.61,6.65,7.57
		c0.31,3.38-2.19,6.95-5.64,8.04c-3.66,1.16-7.67-0.31-9.42-3.67c-0.61-1.18-1.32-1.46-2.54-1.43c-3.38,0.08-6.76,0.03-10.13,0.04
		c-0.06,0-0.12,0.05-0.2,0.08c0.09,0.36,0.43,0.43,0.67,0.59c10.52,7.12,16.7,16.98,18.63,29.52c0.14,0.89-0.13,2.05,0.5,2.61
		c0.68,0.6,1.82,0.16,2.76,0.21c0.81,0.04,1.62-0.01,2.43,0.02c1.79,0.06,2.81,1.08,2.82,2.86c0.01,5.31,0.01,10.63,0,15.94
		c0,1.73-1.01,2.81-2.74,2.82c-5.35,0.04-10.7,0.03-16.05,0c-1.54-0.01-2.48-0.89-2.73-2.4c-0.06-0.38-0.09-0.77-0.09-1.15
		c-0.01-4.82-0.01-9.64,0-14.46c0.01-2.7,0.93-3.61,3.63-3.61c1.02,0,2.04,0,3.06,0c1.29-0.01,1.4-0.12,1.25-1.39
		c-0.62-5.06-2.13-9.82-4.72-14.22c-4.56-7.71-11.04-13.13-19.49-16.17c-1.19-0.43-1.19-0.41-1.2,0.88c0,0.81,0.02,1.62-0.01,2.43
		c-0.06,1.63-1.11,2.78-2.71,2.79c-5.38,0.04-10.77,0.04-16.15,0c-1.62-0.01-2.68-1.13-2.75-2.75c-0.04-0.91-0.05-1.83,0-2.74
		c0.04-0.82-0.23-0.96-0.98-0.7c-4.79,1.67-9.06,4.18-12.78,7.62c-6.61,6.12-10.46,13.67-11.66,22.59c-0.21,1.56-0.12,1.66,1.5,1.66
		c1.16,0,2.32-0.02,3.48,0.01c1.69,0.04,2.66,0.92,2.89,2.61c0.06,0.42,0.06,0.84,0.06,1.26c0,4.68,0.01,9.36,0,14.04
		c0,2.83-0.91,3.73-3.73,3.73c-4.86,0-9.71,0-14.57,0c-2.38,0-3.31-0.94-3.31-3.33c0-5.07,0-10.13,0-15.2c0-2.14,0.96-3.1,3.07-3.12
		c1.44-0.01,2.89-0.02,4.33,0c0.56,0.01,0.79-0.2,0.86-0.79c1.43-13.58,7.83-24.16,19.18-31.74c0.12-0.08,0.23-0.16,0.34-0.25
		C67.85,70.03,67.85,69.99,67.94,69.8z M56.31,113.76c0-1.55-0.02-3.09,0.01-4.64c0.01-0.67-0.24-0.95-0.92-0.94
		c-3.09,0.02-6.18,0.02-9.28,0c-0.63,0-0.87,0.26-0.87,0.88c0.02,3.06,0.02,6.11,0,9.17c0,0.63,0.23,0.89,0.86,0.89
		c3.09-0.01,6.18-0.01,9.28,0c0.68,0,0.94-0.26,0.93-0.94C56.29,116.71,56.31,115.23,56.31,113.76z M134.64,113.63
		c0-1.48-0.02-2.95,0.01-4.43c0.02-0.69-0.18-1.04-0.94-1.03c-3.06,0.02-6.11,0.02-9.17,0c-0.75-0.01-0.96,0.32-0.96,1.02
		c0.02,2.99,0.03,5.97,0,8.96c-0.01,0.75,0.29,0.98,1,0.98c3.02-0.02,6.04-0.03,9.06,0c0.8,0.01,1.03-0.32,1.01-1.07
		C134.61,116.58,134.64,115.11,134.64,113.63z M95.41,66.43c0-1.48-0.03-2.95,0.01-4.43c0.02-0.78-0.21-1.15-1.07-1.14
		c-2.95,0.03-5.9,0.02-8.85,0.01c-0.7,0-1.03,0.21-1.02,0.97c0.02,3.02,0.02,6.04,0,9.06c0,0.69,0.29,0.93,0.95,0.92
		c2.99-0.02,5.97-0.02,8.96,0.01c0.79,0.01,1.04-0.32,1.03-1.07C95.39,69.32,95.41,67.87,95.41,66.43z M131.77,69.93
		c1.62,0.02,2.87-1.18,2.86-2.74c-0.01-1.47-1.2-2.67-2.69-2.71c-1.64-0.04-2.85,1.11-2.87,2.69
		C129.06,68.74,130.21,69.91,131.77,69.93z M48.03,69.92c1.58,0.01,2.77-1.12,2.8-2.66c0.03-1.6-1.16-2.79-2.78-2.79
		c-1.55,0-2.77,1.19-2.78,2.71C45.26,68.7,46.48,69.91,48.03,69.92z"/>
</g>
</svg>
