<?xml version="1.0" encoding="utf-8"?>
<!-- Generator: Adobe Illustrator 27.7.0, SVG Export Plug-In . SVG Version: 6.00 Build 0)  -->
<svg version="1.1" id="Layer_1" xmlns="http://www.w3.org/2000/svg" xmlns:xlink="http://www.w3.org/1999/xlink" x="0px" y="0px"
	 viewBox="0 0 180 180" style="enable-background:new 0 0 180 180;" xml:space="preserve">
<style type="text/css">
	.st0{fill:#FFFFFF;}
	.st1{fill:#5391FD;}
</style>
<rect class="st0" width="180" height="180"/>
<g>
	<path class="st1" d="M136.25,140c-30.8,0-61.6,0-92.4,0c-2.68-0.99-3.81-2.9-3.8-5.78c0.04-29.48,0.04-58.96,0-88.43
		c0-2.88,1.12-4.79,3.8-5.78c8.64,0,17.28,0,25.93,0c2.71,1.05,3.84,3.05,3.79,5.94c-0.08,4.46-0.02,8.92-0.02,13.37
		c0,0.32-0.08,0.68,0.15,1.08c0.22-0.37,0.4-0.64,0.56-0.92c2.29-3.97,4.57-7.95,6.88-11.92c1.77-3.04,4.58-3.83,7.61-2.1
		c6.51,3.74,12.99,7.51,19.49,11.27c0.86,0.5,1.61,1.11,2.1,1.98c1.03,1.85,0.91,3.67-0.13,5.47c-2.29,3.97-4.58,7.95-6.86,11.92
		c-0.17,0.29-0.46,0.55-0.38,1c0.39,0,0.66-0.25,0.96-0.42c3.97-2.29,7.93-4.6,11.9-6.87c2.9-1.66,5.76-0.91,7.43,1.96
		c3.77,6.5,7.52,13.01,11.26,19.53c1.74,3.03,0.95,5.87-2.08,7.63c-3.96,2.31-7.93,4.59-11.89,6.89c-0.29,0.17-0.66,0.24-0.86,0.71
		c0.41,0,0.76,0,1.11,0c4.42,0,8.84,0.06,13.25-0.02c2.88-0.05,4.87,1.08,5.92,3.79c0,8.66,0,17.32,0,25.98
		C139.33,138.13,138.09,139.37,136.25,140z M89.98,123.45c0-4,0-8.01,0-12.01c0-1.24-0.05-1.29-1.25-1.29c-5.75,0-11.5,0-17.25,0
		c-1.2,0-1.25,0.06-1.25,1.29c0,7.97,0.01,15.95-0.02,23.92c0,0.93,0.28,1.25,1.22,1.25c5.78-0.03,11.56-0.03,17.34,0
		c0.95,0.01,1.23-0.32,1.22-1.25C89.95,131.39,89.98,127.42,89.98,123.45z M113.2,123.3c0-3.97-0.02-7.94,0.02-11.9
		c0.01-0.92-0.28-1.26-1.23-1.26c-5.78,0.03-11.56,0.03-17.34,0c-0.96-0.01-1.22,0.35-1.21,1.26c0.03,7.97,0.01,15.94,0.02,23.91
		c0,1.22,0.07,1.28,1.26,1.28c5.75,0,11.49,0,17.24,0c1.19,0,1.24-0.06,1.24-1.29C113.2,131.3,113.2,127.3,113.2,123.3z
		 M56.62,63.19c4,0,7.99,0,11.99,0c1.27,0,1.33-0.05,1.33-1.31c0-5.37,0-10.74,0-16.11c0-1.86-0.49-2.35-2.37-2.36
		c-7.21-0.01-14.42-0.01-21.63,0c-1.82,0-2.38,0.57-2.38,2.41c-0.01,5.37,0,10.74,0,16.11c0,1.2,0.06,1.26,1.28,1.26
		C48.76,63.19,52.69,63.19,56.62,63.19z M116.81,123.33c0,4.04,0.01,8.07-0.01,12.11c0,0.73,0.13,1.17,1,1.16
		c5.55-0.02,11.11,0,16.66-0.02c1.46-0.01,2.07-0.64,2.08-2.11c0.02-7.42,0.02-14.84,0-22.26c0-1.51-0.58-2.05-2.08-2.05
		c-5.46-0.01-10.91-0.01-16.37,0c-1.22,0-1.28,0.06-1.28,1.27C116.8,115.39,116.81,119.36,116.81,123.33z M118.68,72.51
		c-0.43,0.02-0.8,0.23-1.17,0.44c-4.84,2.8-9.67,5.61-14.52,8.38c-0.68,0.39-0.72,0.75-0.35,1.39c4.08,7.04,8.14,14.08,12.18,21.14
		c0.38,0.67,0.73,0.76,1.38,0.37c4.83-2.82,9.67-5.6,14.5-8.41c1.24-0.72,1.43-1.43,0.74-2.67c-0.99-1.76-2.01-3.5-3.01-5.25
		c-2.7-4.68-5.39-9.36-8.08-14.04C119.97,73.19,119.54,72.59,118.68,72.51z M85.93,48.1c-0.81,0.07-1.29,0.47-1.64,1.06
		c-2.82,4.9-5.64,9.81-8.48,14.71c-0.34,0.58-0.27,0.91,0.32,1.25c7.09,4.09,14.18,8.19,21.26,12.3c0.55,0.32,0.9,0.32,1.25-0.3
		c2.81-4.91,5.65-9.81,8.46-14.72c0.68-1.2,0.5-1.91-0.7-2.6c-6.52-3.79-13.05-7.56-19.58-11.32C86.53,48.3,86.18,48.2,85.93,48.1z
		 M66.62,123.36c0-3.94,0-7.88,0-11.82c0-1.35-0.04-1.39-1.35-1.39c-6.46,0-12.93,0-19.39,0c-1.8,0-2.31,0.5-2.31,2.32
		c-0.01,7.26-0.01,14.52,0,21.78c0,1.77,0.58,2.34,2.35,2.34c6.5,0.01,12.99-0.01,19.49,0.02c0.93,0,1.25-0.29,1.24-1.24
		C66.59,131.37,66.61,127.36,66.62,123.36z M56.82,66.81c-3.99,0-7.99,0-11.98,0c-1.23,0-1.29,0.06-1.29,1.25
		c0,5.76,0,11.51,0,17.27c0,1.2,0.07,1.26,1.28,1.26c4.22,0,8.44-0.02,12.66,0.02c0.81,0.01,1.3-0.26,1.71-0.97
		c3.38-5.93,6.8-11.84,10.2-17.75c0.57-0.99,0.53-1.07-0.61-1.07C64.8,66.8,60.81,66.81,56.82,66.81z M100.77,106.54
		c3.41,0,6.82,0,10.23,0c1.22,0,1.25-0.05,0.65-1.09c-4.03-6.99-8.06-13.97-12.07-20.97c-0.37-0.65-0.67-0.8-1.35-0.4
		c-5.1,2.98-10.22,5.94-15.35,8.88c-0.71,0.4-0.78,0.77-0.37,1.46c2.19,3.73,4.35,7.48,6.48,11.24c0.37,0.65,0.82,0.9,1.56,0.89
		C93.95,106.52,97.36,106.54,100.77,106.54z M76.79,92.31c0.26-0.12,0.51-0.22,0.73-0.34c6.05-3.49,12.09-6.99,18.15-10.48
		c0.61-0.35,0.68-0.58,0.01-0.96c-7.12-4.1-14.24-8.22-21.35-12.35c-0.53-0.31-0.84-0.29-1.17,0.28
		c-2.99,5.22-5.99,10.44-9.01,15.64c-0.35,0.6-0.21,0.91,0.36,1.23c3.86,2.21,7.71,4.45,11.57,6.67
		C76.3,92.13,76.55,92.21,76.79,92.31z M59.84,106.48c0.15,0.02,0.27,0.06,0.39,0.06c8.05,0,16.1,0,24.15,0.01
		c0.81,0,0.89-0.25,0.51-0.91c-1.79-3.06-3.55-6.14-5.32-9.2c-0.67-1.16-0.67-1.15-1.84-0.48c-5.71,3.3-11.41,6.61-17.11,9.92
		C60.35,106.02,60.02,106.1,59.84,106.48z M52.06,106.53c0.3,0,0.58-0.17,0.87-0.33c6.43-3.72,12.87-7.44,19.29-11.17
		c0.89-0.52,0.89-0.61,0.02-1.11c-3.09-1.79-6.19-3.56-9.26-5.39c-0.81-0.49-1.2-0.35-1.66,0.46c-2.35,4.16-4.75,8.28-7.14,12.42
		c-0.84,1.46-1.68,2.93-2.53,4.39C51.41,106.24,51.38,106.55,52.06,106.53z M43.55,98.38c0,2.44,0.01,4.87-0.01,7.31
		c-0.01,0.72,0.14,1.11,1,0.92c0.56-0.12,1.16-0.08,1.74-0.06c0.59,0.02,0.96-0.2,1.26-0.72c2.86-4.99,5.73-9.97,8.61-14.94
		c0.36-0.62,0.3-0.83-0.46-0.83c-3.7,0.02-7.39,0.03-11.09,0c-0.82-0.01-1.07,0.32-1.06,1.1C43.57,93.57,43.55,95.97,43.55,98.38z"
		/>
	<path class="st1" d="M56.77,130.1c-3.72,0-6.75-3.05-6.74-6.78c0.01-3.72,3.07-6.79,6.77-6.79c3.67,0.01,6.79,3.15,6.77,6.81
		C63.55,127.06,60.49,130.1,56.77,130.1z M56.8,126.49c1.78-0.01,3.16-1.37,3.17-3.13c0.01-1.82-1.38-3.22-3.2-3.22
		c-1.8,0-3.16,1.41-3.14,3.25C53.65,125.2,54.98,126.5,56.8,126.49z"/>
</g>
</svg>
