<?xml version="1.0" encoding="utf-8"?>
<!-- Generator: Adobe Illustrator 27.7.0, SVG Export Plug-In . SVG Version: 6.00 Build 0)  -->
<svg version="1.1" id="Layer_1" xmlns="http://www.w3.org/2000/svg" xmlns:xlink="http://www.w3.org/1999/xlink" x="0px" y="0px"
	 viewBox="0 0 180 180" style="enable-background:new 0 0 180 180;" xml:space="preserve">
<style type="text/css">
	.st0{fill:#FFFFFF;}
	.st1{fill:#5391FD;}
</style>
<rect y="0" class="st0" width="180" height="180"/>
<g>
	<path class="st1" d="M128,131.4c0.9,0,1.6,0,2.2,0c1.2,0.1,2,0.7,2,2c0,4,0,8,0,12c0,1.1-0.6,1.8-1.7,2c-0.5,0.1-1,0.1-1.6,0.1
		c-8.8,0-17.6,0-26.4,0c-0.5,0-1.1,0-1.6-0.1c-1-0.2-1.5-0.7-1.5-1.7c0-4.1,0-8.2,0-12.3c0-1.1,0.7-1.7,1.7-1.8
		c0.4-0.1,0.8-0.1,1.2,0c1,0.1,1.2-0.4,1.3-1.3c0-3.5-0.2-7,0.1-10.5c0.3-3.4,1.8-6.3,4.4-8.5c3.8-3.4,7.7-6.7,11.6-10.1
		c0.5-0.5,0.8-0.9,0.8-1.7c0.1-4.7,0.3-9.3,0.5-14c0.1-3.8,3.2-6.2,6.9-5.6c0.7,0.1,1-0.1,1.3-0.7c1.2-2.7,3.9-4.1,6.7-3.5
		c2.8,0.6,4.7,2.9,4.7,5.9c-0.1,9.3-0.4,18.6-1.3,27.9c-0.7,7.1-3.9,13.3-8.4,18.8C130,129.2,129.1,130.1,128,131.4z M115.1,131.3
		c2.1,0,4.2,0,6.3,0c0.9,0,1.5-0.3,2.1-0.9c1.6-1.5,3.1-3.1,4.5-4.8c4.6-5.8,7.6-12.2,7.8-19.8c0.1-3.3,0.4-6.6,0.6-9.9
		c0.2-4.8,0.4-9.7,0.5-14.5c0-1.5-1-2.6-2.3-2.6c-1.2,0-2.2,1-2.3,2.5c-0.3,6.2-0.7,12.3-1,18.5c-0.1,1.2-0.2,2.3,0.1,3.5
		c0.7,2.7,0,5-2,6.8c-4.3,3.9-8.7,7.7-13.1,11.5c-1.1,1-2.1,1-2.9,0.1c-0.7-0.8-0.5-1.9,0.5-2.8c2.5-2.2,5-4.4,7.5-6.5
		c1.9-1.7,3.9-3.4,5.8-5.2c1.2-1.1,1.1-2.9,0.1-4c-1-1.2-2.6-1.3-3.9-0.4c-0.4,0.3-0.8,0.6-1.2,1c-3.7,3.3-7.5,6.5-11.2,9.8
		c-1.8,1.6-3.1,3.5-3.3,5.8c-0.4,3.7-0.1,7.5-0.2,11.2c0,0.8,0.6,0.7,1.1,0.7C110.7,131.3,112.9,131.3,115.1,131.3z M115.7,143.7
		c3.9,0,7.7,0,11.6,0c0.9,0,1.2-0.3,1.2-1.2c0-2.1,0-4.2,0-6.3c0-0.9-0.4-1.2-1.2-1.2c-7.7,0-15.5,0-23.2,0c-0.8,0-1.2,0.3-1.1,1.1
		c0,2.1,0.1,4.2,0,6.3c0,1,0.4,1.2,1.3,1.2C108.1,143.7,111.9,143.7,115.7,143.7z M124.3,95.5c0,2.7,0,2.7,2.3,3.2c0,0,0.1,0,0.1,0
		c1,0.5,1.1,0,1.1-0.9c0.2-4.1,0.4-8.2,0.7-12.3c0.1-1.4-0.3-2.1-1.5-2.3c-1.3-0.1-2.1,0.6-2.2,2C124.6,88.8,124.4,92.2,124.3,95.5z
		"/>
	<path class="st1" d="M53.2,131.3c-2.2-2.3-4-4.5-5.6-6.9c-3.8-5.8-5.8-12.2-6.1-19.1c-0.3-7.8-0.8-15.5-1-23.3
		c-0.1-3.3,1.5-5.7,4.5-6.5c2.8-0.7,5.6,0.6,7,3.6c0.3,0.6,0.6,0.7,1.2,0.6c3.8-0.6,6.8,1.8,6.9,5.7c0.2,4.7,0.3,9.3,0.5,14
		c0,0.6,0.2,1,0.7,1.5c3.8,3.3,7.5,6.6,11.3,9.8c3.3,2.8,4.8,6.4,4.9,10.6c0,2.8,0,5.6,0,8.5c0,1.1,0.3,1.6,1.5,1.5
		c2.2-0.1,2.7,0.5,2.7,2.7c0,3.6,0,7.2,0,10.8c0,1.9-0.6,2.5-2.5,2.6c-2,0-4,0-6.1,0c-6.9,0-13.9,0-20.8,0c-0.6,0-1.1,0-1.7-0.1
		c-1.1-0.2-1.7-0.8-1.7-2c0-4,0-7.9,0-11.9c0-1.4,0.8-2,2.1-2.1C51.6,131.3,52.2,131.3,53.2,131.3z M65.9,131.3c2.1,0,4.3,0,6.4,0
		c1.1,0,1.5-0.3,1.5-1.4c-0.1-2.9,0-5.8,0-8.7c0-3.1-1.2-5.7-3.6-7.8c-2.4-2.1-4.8-4.2-7.2-6.3c-1.7-1.5-3.3-2.9-5.1-4.3
		c-1.1-0.9-2.4-0.9-3.5-0.2c-1.1,0.7-1.5,1.8-1.3,3c0.1,0.9,0.8,1.6,1.4,2.2c4.2,3.7,8.5,7.4,12.7,11.2c1,0.9,1.1,2,0.4,2.8
		c-0.7,0.8-1.7,0.9-2.7,0c-4.5-3.9-9.1-7.9-13.5-11.9c-1.8-1.6-2.4-3.7-1.8-6.1c0.2-0.9,0.3-1.8,0.2-2.8c-0.3-5.2-0.5-10.5-0.8-15.7
		c-0.1-1.4-0.1-2.7-0.2-4.1c-0.1-1.3-1.2-2.3-2.4-2.3c-1.2,0-2.2,1.1-2.3,2.4c0,0.6,0,1.2,0,1.8c0.2,5.6,0.4,11.2,0.7,16.8
		c0.2,3.4,0.2,6.9,0.8,10.2c1.5,8.4,6.1,15,12.2,20.6c0.5,0.4,1,0.5,1.6,0.5C61.6,131.3,63.8,131.3,65.9,131.3z M65.4,143.7
		c3.9,0,7.7,0,11.6,0c0.8,0,1.2-0.2,1.1-1.1c0-2.1,0-4.3,0-6.4c0-0.8-0.3-1.1-1.1-1.1c-7.7,0-15.5,0-23.2,0c-1,0-1.2,0.4-1.2,1.3
		c0,2,0.1,4,0,6c0,1,0.4,1.3,1.3,1.3C57.7,143.6,61.6,143.7,65.4,143.7z M56.6,95.8c0-2.1,0-4.3,0-6.4c0-1.4-0.1-2.9-0.2-4.3
		c-0.1-1.2-1-1.9-2.3-1.8c-1.1,0.1-1.5,0.8-1.4,2.1c0.1,0.8,0.1,1.6,0.2,2.4c0.2,3.5,0.3,6.9,0.5,10.4c0,0.4-0.1,0.8,0.6,0.7
		C56.8,98.6,56.9,98.6,56.6,95.8z"/>
	<path class="st1" d="M112.7,85.8c-0.1,12.2-10.1,22.2-22.3,22.1c-12.2-0.1-22.3-10.2-22.1-22.1c0.2-12.7,10-22.4,22.7-22.3
		C102.9,63.6,112.8,73.7,112.7,85.8z M90.3,67.1c-0.7,0-1.6,0.1-2.5,0.2c-14,2.1-20.6,18.8-11.9,29.8c0.2,0.3,0.4,0.7,0.8,0.6
		c0.4-0.1,0.4-0.6,0.5-0.9c0.9-2.7,2.6-4.9,4.9-6.6c0.8-0.6,0.9-1,0.5-2c-1.7-3.4-1.5-6.7,0.8-9.8c2.4-3.1,5.6-4.1,9.4-3.3
		c5.9,1.4,8.7,7.8,5.8,13.3c-0.4,0.7-0.3,1.1,0.3,1.5c2.5,1.7,4.1,4.1,5.1,6.9c0.1,0.3,0.1,0.9,0.5,0.9c0.4,0.1,0.6-0.4,0.9-0.8
		c3-4,4.2-8.5,3.6-13.5C107.8,74.1,100,67,90.3,67.1z M90.5,104.2c3.3,0,6.4-0.8,9.2-2.4c1-0.5,1.3-1.2,1.1-2.2
		c-0.6-3.2-2.3-5.6-5.1-7.3c-0.5-0.3-0.9-0.3-1.4,0c-2.6,1.2-5.1,1.2-7.7,0c-0.4-0.2-0.8-0.2-1.3,0.1c-2.9,1.7-4.6,4.1-5.2,7.3
		c-0.2,1,0.2,1.6,1.1,2.1C84.2,103.4,87.2,104.2,90.5,104.2z M90.5,78.6c-3,0-5.5,2.5-5.4,5.5c0.1,3,2.5,5.4,5.5,5.4
		c3,0,5.4-2.5,5.4-5.5C96,81,93.5,78.6,90.5,78.6z"/>
	<path class="st1" d="M57.6,57.8c0.7-2.1-0.7-3.7-2.1-5.4c-2.2-2.8-1.9-3.8,1.5-4.6c2.5-0.6,4.3-1.9,5.6-4.1c1.8-3,2.9-3,4.8,0
		c1.4,2.2,3.1,3.6,5.6,4c3.4,0.6,3.7,2.4,1.4,4.7c-1.7,1.8-2.4,3.7-2,6.1c0.1,0.6,0,1.2,0,1.8c-0.1,1.6-1.1,2.4-2.6,1.9
		c-1.3-0.4-2.5-0.8-3.8-1.3c-0.7-0.3-1.4-0.3-2.1,0c-1.2,0.5-2.5,0.9-3.8,1.3c-1.5,0.5-2.6-0.3-2.6-1.9
		C57.5,59.6,57.6,58.8,57.6,57.8z M61.3,55.6c0,0.5,0,0.8,0,1.2c-0.1,1.1,0.3,1.2,1.2,0.8c1.7-0.9,3.4-0.9,5.1,0
		c0.9,0.5,1.3,0.1,1.1-0.8c-0.2-1.8,0.2-3.4,1.5-4.8c0.9-1,0.9-1.2-0.5-1.4c-1.8-0.4-3.2-1.3-4-3c-0.1-0.1-0.1-0.2-0.2-0.3
		c-0.4-0.7-0.7-0.6-1.1,0c-0.9,1.8-2.3,3-4.3,3.3c-1.1,0.2-0.9,0.7-0.4,1.4C60.7,53.1,61.7,54.2,61.3,55.6z"/>
	<path class="st1" d="M108.6,57.8c0.6-1.8-0.4-3.5-1.8-5c-0.5-0.5-0.9-1.1-1.2-1.6c-0.8-1.2-0.4-2.5,1-3c1.3-0.4,2.6-0.8,3.9-1.2
		c0.7-0.2,1.2-0.6,1.6-1.2c0.7-1,1.4-2.1,2.1-3.1c1.1-1.5,2.6-1.6,3.5,0c1.6,3.1,4,4.8,7.4,5.4c1.8,0.4,2.4,1.9,1.1,3.3
		c-2.4,2.5-3.2,5.3-2.8,8.7c0.2,2-1.1,3-2.9,2.1c-3-1.5-5.9-1.5-9,0c-1.9,0.9-3,0-3-2.2C108.6,59.3,108.6,58.7,108.6,57.8z
		 M112.4,55.6c0,0.5,0,0.7,0,1c-0.1,1.1,0.3,1.4,1.3,0.9c1.7-0.9,3.4-0.7,5.1,0.1c0.8,0.4,1.1,0.1,1-0.7c-0.3-1.9,0.2-3.7,1.6-5.1
		c0.6-0.6,0.5-1.1-0.4-1.2c-2-0.3-3.5-1.4-4.4-3.2c-0.4-0.8-0.8-0.7-1.2,0c-0.9,1.8-2.3,2.9-4.3,3.2c-1.2,0.2-0.9,0.7-0.4,1.4
		C111.7,53.1,112.8,54.1,112.4,55.6z"/>
	<path class="st1" d="M97.9,51.3c0,0.6,0.1,1.3,0.1,1.9c0,1.8-1.2,2.8-2.7,2.1c-3.2-1.5-6.2-1.5-9.4,0c-1.6,0.7-3-0.3-2.7-2
		c0.6-3.4-0.4-6.2-2.7-8.7c-1.4-1.5-0.9-3,1.1-3.4c3.4-0.6,5.7-2.4,7.3-5.4c0.9-1.6,2.6-1.6,3.5,0c1.6,3,4,4.7,7.3,5.4
		c2,0.4,2.3,1.8,1.1,3.4c-0.4,0.5-0.7,1-1.1,1.4C97.9,48.4,97.9,48.4,97.9,51.3z M86.9,49c0,0.3,0,0.4,0,0.4c0,1.7,0,1.8,1.5,1.1
		c1.4-0.6,2.8-0.7,4.2,0c0.3,0.1,0.6,0.2,0.9,0.3c0.5,0.2,0.8,0.1,0.7-0.5c-0.3-2.1,0.1-3.9,1.7-5.4c0.7-0.7,0.4-1.1-0.4-1.3
		c-1.9-0.3-3.3-1.3-4.2-3c-0.4-0.8-1-0.8-1.4,0c-0.9,1.7-2.2,2.7-4.1,3c-1,0.1-1.2,0.6-0.5,1.4C86.3,46.2,87.3,47.4,86.9,49z"/>
</g>
</svg>
