<?xml version="1.0" encoding="utf-8"?>
<!-- Generator: Adobe Illustrator 27.7.0, SVG Export Plug-In . SVG Version: 6.00 Build 0)  -->
<svg version="1.1" id="Layer_1" xmlns="http://www.w3.org/2000/svg" xmlns:xlink="http://www.w3.org/1999/xlink" x="0px" y="0px"
	 viewBox="0 0 180 180" style="enable-background:new 0 0 180 180;" xml:space="preserve">
<style type="text/css">
	.st0{fill:#FFFFFF;}
	.st1{fill:#5391FD;}
</style>
<rect class="st0" width="180" height="180"/>
<g>
	<path class="st1" d="M96.11,27.6c2.16,0.77,4.18,1.76,5.6,3.68c1.21,1.64,1.99,3.44,2.02,5.5c0.03,2.68,0.04,5.36,0,8.03
		c-0.02,1.63,0.66,2.66,2.21,3.24c4.03,1.51,8.05,3.02,12.04,4.63c5.27,2.13,8.05,7.6,6.68,12.97c-0.34,1.35-0.96,2.59-1.78,3.71
		c-2.03,2.79-4.04,5.59-5.86,8.52c-0.09,0.14-0.18,0.27-0.28,0.4c-0.81,1.02-1.86,1.26-2.76,0.64c-0.92-0.63-1.15-1.71-0.47-2.79
		c1.12-1.79,2.29-3.54,3.48-5.29c0.78-1.14,1.63-2.22,2.42-3.36c3.11-4.46,1.76-9.24-3.28-11.31c-3.56-1.46-7.19-2.78-10.78-4.16
		c-1.1-0.42-2.21-0.81-3.14-1.58c-1.86-1.52-2.39-3.59-2.42-5.86c-0.01-1.22-0.03-2.43,0-3.65c0.02-0.78-0.32-1.07-1.1-1.07
		c-5.76,0.02-11.52,0.02-17.29,0c-0.86,0-1.13,0.35-1.13,1.16c-0.01,1.66,0.06,3.32-0.11,4.98c-0.26,2.54-1.57,4.32-3.84,5.36
		c-1.4,0.64-2.86,1.15-4.31,1.65c-1.2,0.42-2.24-0.03-2.63-1.03c-0.39-1.02,0.05-2.03,1.23-2.55c1.19-0.52,2.4-0.98,3.62-1.43
		c1.45-0.53,2.1-1.54,2.09-3.07c-0.02-2.39-0.01-4.79-0.01-7.18c0-4.89,2.34-8.19,6.97-9.85c0.23-0.08,0.44-0.2,0.66-0.3
		C87.99,27.6,92.05,27.6,96.11,27.6z M90.03,36.04c2.88,0,5.75-0.02,8.63,0.01c0.92,0.01,1.07-0.33,0.72-1.08
		c-0.86-1.85-2.22-3.15-4.28-3.4c-3.38-0.41-6.79-0.4-10.18,0c-1.91,0.23-3.24,1.41-4.11,3.09c-0.62,1.2-0.5,1.38,0.82,1.38
		C84.44,36.05,87.24,36.04,90.03,36.04z"/>
	<path class="st1" d="M90.07,133.23c8.81,0,17.61,0,26.42,0c2.94,0,4-1.16,4.23-4.09c0.55-7.31-1.84-13.72-5.73-19.71
		c-1.17-1.8-2.27-3.66-3.54-5.39c-3.61-4.91-4.17-10.34-2.84-16.1c0.3-1.3,0.69-2.59,1.1-3.86c0.5-1.56,1.51-2.23,2.64-1.85
		c1.18,0.4,1.6,1.48,1.09,3.02c-0.77,2.28-1.23,4.6-1.48,7c-0.35,3.36,0.6,6.3,2.42,9.07c2.6,3.97,5.31,7.87,7.35,12.18
		c2.55,5.39,3.37,11.08,2.9,16.95c-0.34,4.2-3.56,6.7-8.38,6.72c-5.76,0.03-11.53,0.01-17.29,0.01c-1.78,0-1.78,0-1.78,1.83
		c0,3.61,0.01,7.22,0,10.84c-0.01,1.86-0.64,2.51-2.47,2.52c-3.12,0.01-6.25,0.01-9.37,0c-1.76-0.01-2.42-0.67-2.43-2.44
		c-0.01-3.77-0.05-7.55,0.02-11.32c0.02-1.16-0.4-1.45-1.48-1.44c-5.84,0.04-11.69,0.02-17.53,0.01c-2.51,0-4.82-0.52-6.61-2.5
		c-1.13-1.26-1.78-2.73-1.88-4.39c-0.24-4.07,0.01-8.11,1.16-12.05c0.39-1.34,1.24-1.99,2.34-1.78c1.15,0.22,1.77,1.22,1.43,2.64
		c-0.62,2.61-0.99,5.25-1.1,7.93c-0.05,1.22,0.05,2.44,0.22,3.63c0.21,1.46,1.79,2.54,3.57,2.54c4.63,0.02,9.25,0.01,13.88,0.01
		C81.3,133.23,85.68,133.23,90.07,133.23z M86.85,142.81c0,1.58,0.01,3.16,0,4.74c-0.01,0.71,0.28,1.03,1.01,1.02
		c1.46-0.03,2.92-0.02,4.38,0c0.67,0.01,0.96-0.29,0.96-0.95c-0.01-3.12-0.01-6.24,0-9.36c0-0.7-0.29-1.06-1.01-1.05
		c-1.42,0.01-2.84,0.02-4.25,0c-0.78-0.01-1.09,0.35-1.08,1.11C86.86,139.81,86.85,141.31,86.85,142.81z"/>
	<path class="st1" d="M68.2,93.99c-0.13-5.8-2.05-10.86-4.88-15.65c-1.93-3.25-4.31-6.19-6.38-9.34c-2.47-3.76-2.57-7.7-0.35-11.62
		c1.58-2.79,4.1-4.44,7.14-5.31c1.05-0.3,2.03,0.19,2.36,1.17c0.35,1.03,0.01,1.86-0.93,2.37c-0.78,0.43-1.64,0.71-2.42,1.13
		c-3.6,1.91-4.87,6.35-2.68,9.8c2.26,3.56,4.98,6.81,7.06,10.5c2.92,5.2,4.95,10.64,4.99,16.71c0.02,3.15-0.84,6.02-2.47,8.65
		c-2.05,3.31-4.34,6.47-6.25,9.87c-0.46,0.82-1.11,1.41-2.17,1.2c-1.53-0.3-2.03-1.65-1.17-3.21c1.74-3.17,3.79-6.14,5.79-9.15
		C67.3,98.9,68.15,96.49,68.2,93.99z"/>
</g>
</svg>
