<?xml version="1.0" encoding="utf-8"?>
<!-- Generator: Adobe Illustrator 27.7.0, SVG Export Plug-In . SVG Version: 6.00 Build 0)  -->
<svg version="1.1" id="Layer_1" xmlns="http://www.w3.org/2000/svg" xmlns:xlink="http://www.w3.org/1999/xlink" x="0px" y="0px"
	 viewBox="0 0 180 180" style="enable-background:new 0 0 180 180;" xml:space="preserve">
<style type="text/css">
	.st0{fill:#FFFFFF;}
	.st1{fill:#5391FD;}
</style>
<rect y="0" class="st0" width="180" height="180"/>
<g>
	<path class="st1" d="M129.1,37.8c1,0.6,1.4,1.5,1.4,2.7c0,1.1,0.1,2.3,0.2,3.4c0,0.2,0,0.4,0.2,0.5c0.2,0.1,0.4-0.1,0.5-0.2
		c0.8-0.8,1.6-1.6,2.4-2.3c0.9-0.9,1.8-0.9,2.5-0.2c0.7,0.7,0.6,1.6-0.3,2.5c-0.7,0.8-1.5,1.5-2.2,2.2c-0.2,0.2-0.5,0.3-0.3,0.6
		c0.1,0.2,0.4,0.2,0.6,0.2c1.2,0.1,2.4,0.2,3.6,0.2c1,0,1.9,0.4,2.3,1.4c0.4,1,0.1,1.9-0.6,2.7c-3.2,3.2-6.4,6.3-9.5,9.5
		c-1.3,1.3-2.9,1.2-4.6,1.1c-0.8-0.1-1.6-0.1-2.4-0.1c-0.2,0-0.5-0.1-0.6,0.1c-0.2,0.3,0.1,0.5,0.3,0.6c2.5,3.2,4.6,6.6,6.2,10.3
		c2.3,5.2,3.6,10.6,3.8,16.3c0.6,14-4.2,25.9-14.2,35.7c-7,6.8-15.5,11-25.1,12.4c-13.2,1.9-25.1-1.4-35.7-9.5
		c-0.9-0.7-1.1-1.6-0.6-2.4c0.6-0.8,1.6-0.8,2.5-0.1c4.2,3.3,8.7,5.8,13.8,7.3c15.2,4.5,29,1.8,41.1-8.4
		c8.2-6.9,13.1-15.8,14.6-26.5c1.8-13.2-1.7-24.8-10.4-34.9c-0.5-0.6-0.8-0.6-1.3,0c-1.7,1.8-3.5,3.5-5.2,5.2
		c-0.5,0.4-0.5,0.7-0.1,1.3c5,5.8,7.8,12.6,8.3,20.3c0,0.5,0.1,0.9,0.1,1.4c0,1.2-0.6,1.9-1.6,1.9c-0.9,0-1.5-0.7-1.5-1.9
		c-0.1-4.4-1.1-8.6-2.9-12.5c-1.2-2.5-2.7-4.8-4.4-6.9c-0.5-0.6-0.8-0.6-1.3,0c-1.7,1.7-3.4,3.4-5.1,5.1c-0.5,0.5-0.6,0.9-0.1,1.5
		c3.1,3.8,4.7,8.3,4.7,13.2c0,5.5-1.7,10.4-5.4,14.6c-4.9,5.4-11,7.8-18.2,7.3c-9.8-0.7-18.3-8.9-19.6-18.6
		c-1.6-12.3,7-23,18.6-24.6c5.9-0.8,11.2,0.7,16,4.2c1.2,0.9,0.9,1.1,2.2-0.2c1.6-1.6,3.1-3.2,4.7-4.7c0.6-0.6,0.5-0.9-0.1-1.5
		c-5-4.1-10.7-6.5-17.1-7.1c-14.3-1.2-27.4,7.3-32,20.9c-6.1,18,5.7,37.4,24.4,40.3c16,2.5,31.1-7.7,34.9-23.5
		c0.1-0.3,0.1-0.5,0.2-0.8c0.3-0.9,1-1.4,1.8-1.2c0.9,0.2,1.4,1,1.2,2c-0.2,0.8-0.3,1.7-0.6,2.5c-4.4,13.4-13.5,21.7-27.4,24
		c-18.4,3-35.4-9.4-38.7-27.7C49.5,79,62,61.1,80.4,58c10.5-1.8,19.9,0.9,28.1,7.8c0.5,0.4,0.8,0.4,1.3,0c1.7-1.8,3.5-3.6,5.3-5.3
		c0.5-0.5,0.4-0.8-0.1-1.2c-6.7-5.9-14.5-9.5-23.4-10.5c-12.1-1.4-23,1.6-32.5,9.3C50.6,65,45.3,74,43.7,84.9
		c-1.9,12.6,1.2,23.8,9.1,33.8c0.4,0.5,0.9,1,1.3,1.6c0.8,1,0.8,1.8,0,2.5c-0.7,0.6-1.7,0.4-2.5-0.5c-3.5-4-6.3-8.5-8.3-13.4
		c-1.6-4.1-2.7-8.3-3.1-12.7c0-0.2-0.1-0.4-0.1-0.6c0-2.7,0-5.3,0-8c0.1-0.7,0.2-1.5,0.3-2.2c1.9-13.1,8.2-23.6,18.8-31.4
		c8.7-6.3,18.5-9.2,29.2-8.7c4.6,0.2,9.1,1.1,13.4,2.6c4.9,1.7,9.3,4.2,13.3,7.4c0.2,0.1,0.3,0.5,0.6,0.3c0.2-0.1,0.1-0.4,0.1-0.6
		c0-0.8,0-1.6-0.1-2.3c-0.3-2.2,0.2-3.9,1.9-5.5c2.9-2.6,5.5-5.5,8.3-8.2c0.4-0.4,0.9-0.8,1.3-1.2C127.9,37.8,128.5,37.8,129.1,37.8
		z M86.3,73c-0.8,0-1.6,0.1-2.3,0.2c-10.3,1.2-17.6,10.8-16.1,21.1c1.5,10.1,11,17.2,21.1,15.7c14-2.1,20.6-18.4,12.1-29.6
		c-0.4-0.6-0.7-0.6-1.2-0.1c-1.7,1.8-3.5,3.6-5.3,5.3c-0.5,0.5-0.5,0.8-0.2,1.3c1.1,1.9,1.5,3.9,1.2,6.1c-0.7,5.1-5.8,8.8-10.9,7.9
		c-5.2-0.9-8.7-6-7.7-11c1.3-6.4,8.1-9.6,13.9-6.4c0.5,0.3,0.9,0.4,1.3-0.1c1.8-1.8,3.6-3.6,5.4-5.4c0.5-0.5,0.4-0.7-0.1-1.1
		C94.2,74.3,90.5,73,86.3,73z M92.5,91.4c0-0.7-0.2-1.5-0.5-2.3c-0.2-0.6-0.5-0.8-1-0.2c-1.1,1.2-2.2,2.3-3.4,3.4
		c-0.9,0.9-1.9,1-2.6,0.3c-0.7-0.7-0.6-1.6,0.3-2.5c1.1-1.1,2.2-2.2,3.3-3.3c0.6-0.5,0.6-0.8-0.2-1.1c-4-1.6-8.6,1.5-8.6,5.8
		c0,3.4,2.9,6.3,6.3,6.3C89.7,97.8,92.5,95,92.5,91.4z M127.4,42.1c-0.2,0.1-0.3,0.2-0.4,0.3c-2.6,2.6-5.1,5.1-7.7,7.7
		c-0.2,0.2-0.4,0.5-0.4,0.8c0.1,1.7,0.2,3.5,0.3,5.3c0.2-0.1,0.3-0.1,0.4-0.2c2.6-2.6,5.2-5.2,7.9-7.9c0.2-0.2,0.4-0.4,0.4-0.8
		C127.7,45.6,127.6,43.9,127.4,42.1z M135.8,50.3c-1.7-0.1-3.2-0.1-4.7-0.3c-0.8-0.1-1.3,0.1-1.9,0.7c-2.3,2.3-4.6,4.7-7,7
		c-0.2,0.2-0.6,0.4-0.6,0.9c1.7,0.1,3.4,0.2,5.1,0.3c0.5,0,0.8-0.3,1.2-0.6c1.3-1.3,2.5-2.5,3.8-3.8
		C133.1,53.1,134.4,51.8,135.8,50.3z"/>
</g>
</svg>
