<?xml version="1.0" encoding="utf-8"?>
<!-- Generator: Adobe Illustrator 27.7.0, SVG Export Plug-In . SVG Version: 6.00 Build 0)  -->
<svg version="1.1" id="Layer_1" xmlns="http://www.w3.org/2000/svg" xmlns:xlink="http://www.w3.org/1999/xlink" x="0px" y="0px"
	 viewBox="0 0 180 180" style="enable-background:new 0 0 180 180;" xml:space="preserve">
<style type="text/css">
	.st0{fill:#FFFFFF;}
	.st1{fill:#5391FD;}
</style>
<rect y="0" class="st0" width="180" height="180"/>
<g>
	<path class="st1" d="M112,75.5c0.3-0.3,0.2-0.6,0.2-0.9c0-2.7,0-5.4,0-8c0-0.8-0.3-1-1-1.3c-2-0.7-3.2-0.2-4.5,1.6
		c-3.6,4.7-7.4,9.2-11.1,13.8c-0.4,0.5-0.4,0.9-0.1,1.4c1.3,2.4,1.1,4.8-0.5,7c-1.6,2.2-3.9,3-6.5,2.4c-2.7-0.6-4.4-2.3-5.1-5
		c-0.3-1.1-0.2-2.3,0.2-3.4c0.2-0.5,0.1-0.9-0.3-1.2c-1.6-1.3-3.2-2.6-4.7-3.9c-0.4-0.3-0.7-0.4-1.1,0c-3.6,2.7-7.5,3.1-11.7,1.4
		c-0.6-0.3-1-0.1-1.3,0.4c-2.7,3.6-5.4,7.1-8.1,10.6c-0.4,0.6-0.4,0.9,0,1.5c1.9,2.9,1.9,6.4,0,9.1c-1.8,2.7-5.2,4.1-8.2,3.4
		c-3.5-0.8-5.7-2.9-6.5-6.5C40.2,92,46,86.9,51.8,88.7c1,0.3,1.4,0.1,2-0.7c2.6-3.4,5.2-6.8,7.8-10.2c0.4-0.6,0.5-1,0-1.6
		c-5.4-7-1.7-16.7,6.9-18.4c6.5-1.2,13.1,4.1,13.2,10.7c0,2-0.3,3.9-1.3,5.7c-0.3,0.5-0.2,0.8,0.3,1.2c1.5,1.2,3.1,2.5,4.6,3.8
		c0.4,0.4,0.8,0.5,1.3,0.2c1.6-0.9,3.3-1,5-0.5c0.6,0.2,0.9,0,1.3-0.4c3.8-4.8,7.7-9.5,11.5-14.2c0.5-0.6,0.4-0.8-0.3-1.1
		c-3.5-1.5-6.6-3.7-9.4-6.2c-2.5-2.3-2.5-5.8,0-8c5-4.5,10.7-7.6,17.4-8.6c9.5-1.4,17.9,1,25.4,6.9c0.7,0.5,1.3,1.1,1.9,1.6
		c2.5,2.2,2.5,5.7,0,8c-4.7,4.3-10.2,7.2-16.5,8.4c-0.8,0.1-1,0.5-0.9,1.2c0.1,3.4-0.6,2.5,2.6,3.4c4.1,1.1,8.3,2.1,12.4,3.1
		c3,0.8,4.3,2.4,4.3,5.5c0,5.3,0,10.6,0,15.9c0,2.8-0.8,5.2-2.5,7.4c-1,1.3-2,2.5-3,3.8c-0.4,0.4-0.4,0.8,0,1.2
		c2.2,2.3,2.5,5.1,2.4,8.2c-0.2,6.8,0,13.5-0.1,20.3c0,1,0.2,1.4,1.3,1.3c2.2-0.1,2-0.3,2,2c0,1.3,0,1.4-1.3,1.4
		c-32.4,0-64.8,0-97.2,0c-1.3,0-1.4,0-1.3-1.4c0-2.2-0.2-2,1.9-1.9c1,0,1.3-0.2,1.3-1.3c-0.1-3.5,0-7,0-10.6c0-0.6-0.2-1-0.8-1.3
		c-2.2-1.1-3.1-3.5-2-5.8c1.2-2.6,2.5-5.1,3.8-7.6c0.8-1.5,2.1-2.4,3.9-2.4c1.8,0,3.1,0.8,3.9,2.4c1.3,2.5,2.6,5,3.8,7.6
		c1.1,2.4,0.3,4.7-2.1,5.9c-0.5,0.3-0.7,0.5-0.7,1.1c0,3.7,0,7.4,0,11.1c0,0.8,0.3,1,1,1c3,0,6,0,9,0c0.9,0,1.2-0.3,1.2-1.2
		c0-7.4,0-14.8,0-22.2c0-4.2,0-8.3,0-12.5c0-0.7-0.2-1.1-0.9-1.5c-2.1-1-3-3.4-2-5.6c1.2-2.7,2.6-5.4,4-8c1.7-3.1,5.9-3,7.6,0.1
		c1.4,2.5,2.6,5.1,3.9,7.7c1.1,2.3,0.2,4.7-2.1,5.8c-0.6,0.3-0.8,0.6-0.8,1.2c0,11.7,0,23.3,0,35c0,0.8,0.2,1.1,1,1.1
		c2.5,0,5,0,7.5,0c0.8,0,1-0.3,1-1c0-7.9,0-15.9,0-23.8c0-0.6-0.2-0.9-0.7-1.2c-2.4-1.2-3.2-3.6-2.1-5.9c1.2-2.5,2.5-5.1,3.8-7.6
		c0.8-1.5,2.1-2.3,3.8-2.4c1.8,0,3.1,0.8,3.9,2.3c1.3,2.5,2.6,5.1,3.8,7.6c1.1,2.3,0.3,4.7-2,5.9c-0.6,0.3-0.8,0.6-0.8,1.2
		c0,7.9,0,15.8,0,23.7c0,0.8,0.2,1.1,1,1c4.1,0,8.2,0,12.3,0c0.9,0,1.1-0.3,1.1-1.1c0-7.8,0-15.6,0-23.4c0-1.2,0.2-2.2,1-3.2
		c0.6-0.9,1.7-1.7,1.6-2.7c0-1-1.2-1.7-1.8-2.6c-1.7-2.1-3.4-4.2-3.8-7.1c-0.1-0.5-0.1-1-0.1-1.5c0-1.8-0.1-3.7,0-5.5
		c0.1-2.6-0.4-5.1-1.7-7.3c-0.3-0.5-0.6-1.1-0.9-1.7c-0.9-1.7-1-3.4,0.2-5c1.2-1.7,3-1.9,4.9-1.6C109.6,74.2,110.9,74.8,112,75.5z
		 M115.5,72.9c0,5,0,10,0,15c0,2.5,0.4,2.2-2.2,2.2c-0.9,0-1.1-0.3-1.1-1.2c0-2,0-4,0-6c-0.1-3.1-2-5.3-4.9-5.6
		c-1-0.1-1.5,0.5-1.1,1.5c0.5,1.1,1.1,2.2,1.7,3.3c0.9,1.7,1.4,3.5,1.3,5.5c0,2.2,0,4.5,0,6.7c0,2,0.6,3.8,1.9,5.4
		c1.1,1.3,2.2,2.7,3.3,4.1c0.3,0.4,0.7,0.6,1.3,0.6c5.3,0,10.7,0,16,0c0.6,0,1-0.2,1.4-0.7c0.9-1.2,1.8-2.4,2.8-3.5
		c1.6-1.8,2.3-4,2.2-6.4c0-5,0-9.9,0-14.9c0-1.8-0.3-2.1-2-2.6c-0.9-0.2-1.1,0-1.1,0.9c0,3.6,0,7.1,0,10.7c0,2.5,0.4,2.1-2.2,2.2
		c-0.9,0-1.2-0.3-1.2-1.2c0-3.9,0-7.7,0-11.6c0-2.4,0.4-1.9-2-2.6c-1-0.3-1.1,0.1-1.1,0.9c0,4.1,0,8.2,0,12.3c0,2.4,0.3,2-2.2,2.1
		c-0.9,0-1.2-0.2-1.2-1.2c0-4.5,0-8.9,0-13.4c0-1.9,0-1.9-1.9-2.4c-0.9-0.2-1.2,0-1.2,0.9c0,4.7,0,9.5,0,14.2c0,2,0.2,1.8-1.8,1.8
		c-1.5,0-1.5,0-1.5-1.5c0-10.5,0-21,0-31.5c0-1.5-0.5-2.3-1.5-2.3c-1,0-1.6,0.8-1.6,2.4C115.5,62.3,115.5,67.6,115.5,72.9z
		 M112.3,123.8c0,3.9,0,7.7,0,11.6c0,1,0.3,1.2,1.3,1.2c6.6,0,13.3,0,19.9,0c1.1,0,1.3-0.3,1.3-1.3c0-6.8-0.1-13.6,0-20.4
		c0.1-2.4-0.4-4.5-2-6.4c-0.4-0.5-0.8-0.8-1.5-0.8c-4.6,0-9.2,0.1-13.8,0c-2-0.1-3.3,0.5-4.2,2.3c-0.6,1.1-1,2-0.9,3.3
		C112.4,116.8,112.3,120.3,112.3,123.8z M68.9,116.5c0,3.8,0,7.6,0,11.5c0,2.6,0,5.2,0,7.7c0,0.7,0.2,1,0.9,0.9c0.2,0,0.5,0,0.7,0
		c1.5,0,1.5,0,1.5-1.5c0-12.2,0-24.3,0-36.5c0-2.1,0-2.1,2-2.3c0.2,0,0.3,0,0.5-0.1c0.5-0.2,0.8-0.6,0.5-1.2c-1.2-2.5-2.5-5-3.8-7.5
		c-0.4-0.7-1.3-0.7-1.6,0c-1.3,2.5-2.5,5-3.8,7.5c-0.3,0.7,0.1,1.1,0.7,1.3c0.3,0.1,0.7,0.1,1,0.1c1.3,0,1.3,0,1.3,1.3
		C68.9,104,68.9,110.2,68.9,116.5z M88.2,122.1c0,4.5,0,8.9,0,13.4c0,0.9,0.3,1.2,1.1,1.1c0.1,0,0.2,0,0.3,0c1.6,0,1.6,0,1.6-1.6
		c0-8.4,0-16.9,0-25.3c0-1.9,0-1.9,1.9-2c0.1,0,0.3,0,0.4,0c0.7-0.2,1-0.6,0.7-1.4c-1.2-2.5-2.4-4.9-3.7-7.4c-0.4-0.8-1.3-0.8-1.7,0
		c-1.3,2.4-2.5,4.9-3.7,7.4c-0.3,0.7,0,1.3,0.8,1.4c0.3,0.1,0.7,0.1,1,0c1-0.1,1.3,0.2,1.3,1.2C88.2,113.3,88.2,117.7,88.2,122.1z
		 M70.5,77c4.3-0.1,8-3.7,7.9-8c-0.1-4.3-3.7-8-8-7.9c-4.3,0.1-8,3.7-7.9,8C62.5,73.5,66.2,77.1,70.5,77z M122,59
		c2.4-1.3,3.6-5.1,2.7-8.2c-1-3.4-4-5.8-7.7-5.8c-3.7,0-7,2.8-7.6,6.3c-0.6,3.1,0.7,6.6,2.9,7.6c0-1,0-1.9,0-2.8
		c0-2.7,2.2-4.8,4.9-4.8c2.7,0,4.8,2.1,4.9,4.8C122,57.1,122,58,122,59z M48,128.6c0,2,0,4.1,0,6.1c0,2.1-0.3,1.8,1.9,1.9
		c1,0,1.2-0.3,1.2-1.3c0-4.3,0-8.6,0-12.9c0-1.9,0-1.9,1.9-2c1.1-0.1,1.5-0.6,1-1.6c-1.1-2.3-2.3-4.6-3.5-6.9
		c-0.2-0.4-0.5-0.8-1-0.8c-0.5,0-0.7,0.4-0.9,0.8c-1.2,2.3-2.3,4.6-3.5,6.9c-0.5,1-0.1,1.6,1,1.6c0.2,0,0.5,0,0.7,0
		c0.9-0.1,1.2,0.2,1.2,1.2C47.9,124,48,126.3,48,128.6z M109.2,61.4c-4.7-5.6-4.7-11.2-0.1-16.7c-0.2,0-0.3,0-0.4,0
		c-4.5,1.3-8.4,3.7-11.8,6.8c-1,0.9-1,2,0,3c2.4,2.2,5.1,4.1,8,5.4C106.4,60.5,107.7,61,109.2,61.4z M124.9,44.6
		c4.8,6.4,4.8,9.9,0.1,16.7c0.4,0.1,0.7-0.1,1-0.2c3.8-1.2,7-3.2,10.1-5.7c2.4-1.9,2.4-2.9,0-4.9C132.7,47.9,129.2,45.8,124.9,44.6z
		 M54.2,96.5c0-2.5-2.2-4.8-4.7-4.8c-2.5,0-4.7,2.1-4.7,4.7c-0.1,2.5,2.1,4.8,4.7,4.8C52,101.2,54.2,99,54.2,96.5z M92.9,85.2
		c0-1.6-1.5-3.1-3.1-3.1c-1.6,0-3.2,1.5-3.2,3.1c0,1.6,1.6,3.2,3.2,3.1C91.4,88.3,92.9,86.8,92.9,85.2z"/>
	<path class="st1" d="M70.4,64.2c2.8,0,4.9,2.1,4.9,4.9c0,2.8-2.1,4.9-4.9,4.9c-2.8,0-4.9-2.1-4.9-4.9
		C65.5,66.3,67.6,64.2,70.4,64.2z M71.9,69.1c0-0.8-0.7-1.5-1.5-1.5c-0.8,0-1.5,0.7-1.5,1.5c0,0.8,0.7,1.5,1.5,1.5
		C71.1,70.6,71.9,69.9,71.9,69.1z"/>
</g>
</svg>
