<?xml version="1.0" encoding="utf-8"?>
<!-- Generator: Adobe Illustrator 27.7.0, SVG Export Plug-In . SVG Version: 6.00 Build 0)  -->
<svg version="1.1" id="Layer_1" xmlns="http://www.w3.org/2000/svg" xmlns:xlink="http://www.w3.org/1999/xlink" x="0px" y="0px"
	 viewBox="0 0 250 250" style="enable-background:new 0 0 250 250;" xml:space="preserve">
<style type="text/css">
	.st0{fill:#F6F0FC;}
	.st1{fill:#9C4DD6;}
</style>
<circle class="st0" cx="125" cy="125" r="125"/>
<g>
	<path class="st1" d="M50,120.93c0-22.02,0-44.05,0-66.07c0-0.6-0.02-1.21,0.02-1.81c0.14-2.52,1.05-3.39,3.61-3.39
		c42.03,0,84.06,0,126.1,0c2.68,0,3.6,0.93,3.62,3.67c0.02,3.23,0.01,6.45,0.01,9.68c0,38.71,0,77.41,0,116.12
		c0,0.5,0.04,1.01,0,1.51c-0.09,1.12,0.43,1.5,1.52,1.48c3.83-0.04,7.66-0.02,11.49-0.01c2.59,0.01,3.45,0.81,3.58,3.39
		c0.1,2.02,0.07,4.04-0.29,6.03c-0.91,4.95-5.22,8.6-10.33,8.83c-0.45,0.02-0.91,0.01-1.36,0.01c-42.08,0-84.17,0-126.25,0
		c-5.82,0-10.28-3.4-11.36-8.69c-0.29-1.43-0.35-2.89-0.35-4.36C50.01,165.18,50,143.05,50,120.93z M55.21,122.88
		c0,21.63,0,43.25,0,64.88c0,0.6-0.02,1.21,0.02,1.81c0.21,3.31,2.72,5.63,5.98,5.54c3.08-0.08,5.3-2.46,5.36-5.77
		c0.02-1.01,0.01-2.02,0.01-3.02c0-3.59,0.65-4.24,4.21-4.24c32.61,0,65.23,0,97.84,0c2,0,2.03-0.03,2.03-2.02
		c0-41.03,0-82.07,0-123.1c0-2-0.05-2.05-2.02-2.05c-15.78,0-31.56,0-47.33,0c-1.98,0-1.98,0.01-1.99,2.04
		c-0.02,2.66-0.93,3.99-2.69,3.95c-1.66-0.04-2.57-1.41-2.59-3.92c-0.02-2.07-0.02-2.07-2.12-2.07c-18.2-0.01-36.4-0.01-54.59-0.01
		c-2.11,0-2.12,0.01-2.12,2.21C55.21,79.02,55.21,100.95,55.21,122.88z"/>
	<path class="st1" d="M132.31,134.14c-1.76,0-3.53,0.01-5.29,0c-2.17-0.02-3.33-0.95-3.32-2.64c0.01-1.68,1.15-2.61,3.36-2.62
		c3.53-0.02,7.05-0.06,10.58,0.02c1.41,0.03,1.82-0.46,1.79-1.83c-0.08-3.68-0.06-7.36-0.01-11.03c0.03-2.18,1.9-3.43,3.67-2.55
		c1.15,0.57,1.48,1.63,1.52,2.77c0.07,2.37,0.04,4.73,0.05,7.1c0.01,1.41,0.02,2.82,0,4.23c-0.01,0.87,0.36,1.26,1.26,1.3
		c1.6,0.06,2.82,0.02,3.71-1.87c2.02-4.27,6.68-6.24,11.15-5.13c4.45,1.1,7.52,5,7.54,9.58c0.02,4.67-3,8.55-7.56,9.72
		c-4.61,1.19-9.34-1.15-11.47-5.68c-0.55-1.18-3.23-1.92-4.24-1.17c-0.89,0.66-0.39,3.99,0.72,4.48c3.19,1.4,5.15,3.81,5.91,7.17
		c1.18,5.23-2.44,10.73-7.67,11.72c-5.68,1.07-10.98-2.54-11.83-8.07c-0.71-4.64,1.48-8.74,5.76-10.74
		c1.26-0.59,2.05-3.17,1.33-4.32c-0.3-0.47-0.78-0.41-1.22-0.41C136.14,134.14,134.22,134.15,132.31,134.14z M141.89,152.71
		c2.56,0.03,4.78-2.22,4.78-4.83c0-2.43-2.16-4.58-4.65-4.63c-2.49-0.05-4.74,2.12-4.8,4.65
		C137.16,150.32,139.46,152.69,141.89,152.71z M158.27,136.15c2.76,0.03,4.74-1.86,4.78-4.54c0.04-2.71-1.9-4.72-4.59-4.74
		c-2.72-0.02-4.68,1.92-4.69,4.62C153.76,134.14,155.68,136.13,158.27,136.15z"/>
	<path class="st1" d="M65.16,81.9c0,4.08,0.01,8.17-0.01,12.25c0,0.65-0.06,1.31-0.22,1.94c-0.31,1.17-1.16,1.75-2.34,1.76
		c-1.24,0.02-2.16-0.57-2.5-1.78c-0.18-0.62-0.18-1.29-0.18-1.94C59.89,86.06,59.9,78,59.9,69.93c0-0.45-0.02-0.91,0.04-1.36
		c0.2-1.48,1.23-2.37,2.67-2.34c1.36,0.04,2.35,0.92,2.49,2.36c0.1,1.1,0.05,2.22,0.05,3.32C65.16,75.24,65.16,78.57,65.16,81.9z"/>
	<path class="st1" d="M114.06,70.31c0-0.96-0.06-1.92,0.01-2.86c0.12-1.58,1.2-2.64,2.57-2.66c1.37-0.02,2.54,1.05,2.61,2.6
		c0.09,2.01,0.09,4.02,0,6.03c-0.07,1.56-1.26,2.62-2.62,2.59c-1.32-0.03-2.45-1.16-2.56-2.69C114,72.32,114.06,71.31,114.06,70.31z
		"/>
	<path class="st1" d="M119.28,85.41c0,1.06,0.07,2.12-0.02,3.17c-0.13,1.5-1.19,2.51-2.51,2.55c-1.32,0.04-2.58-1.07-2.66-2.57
		c-0.1-2.01-0.1-4.02-0.01-6.03c0.07-1.57,1.23-2.63,2.6-2.62c1.37,0.01,2.46,1.07,2.59,2.64C119.35,83.5,119.29,84.46,119.28,85.41
		C119.29,85.41,119.28,85.41,119.28,85.41z"/>
	<path class="st1" d="M119.29,100.71c0,0.96,0.06,1.91-0.01,2.86c-0.12,1.58-1.17,2.65-2.55,2.68c-1.32,0.03-2.56-1.09-2.64-2.6
		c-0.09-2.01-0.1-4.02,0-6.03c0.08-1.56,1.25-2.62,2.62-2.6c1.38,0.02,2.45,1.09,2.57,2.66C119.35,98.69,119.29,99.7,119.29,100.71z
		"/>
	<path class="st1" d="M119.3,115.75c0,0.96,0.05,1.91-0.01,2.87c-0.11,1.66-1.21,2.78-2.63,2.76c-1.32-0.02-2.51-1.15-2.57-2.67
		c-0.08-1.96-0.09-3.92,0-5.88c0.07-1.58,1.18-2.65,2.55-2.68c1.42-0.03,2.54,1.09,2.65,2.74
		C119.35,113.84,119.3,114.8,119.3,115.75z"/>
	<path class="st1" d="M119.3,130.89c0,0.96,0.05,1.91-0.01,2.87c-0.11,1.65-1.22,2.77-2.64,2.75c-1.32-0.02-2.5-1.15-2.57-2.68
		c-0.08-1.96-0.09-3.92,0-5.88c0.07-1.58,1.19-2.64,2.56-2.67c1.42-0.02,2.54,1.09,2.65,2.75
		C119.35,128.97,119.3,129.93,119.3,130.89z"/>
	<path class="st1" d="M119.29,146.08c0,0.96,0.06,1.91-0.01,2.86c-0.12,1.58-1.18,2.65-2.55,2.68c-1.32,0.03-2.56-1.09-2.63-2.6
		c-0.09-2.01-0.1-4.02,0-6.03c0.08-1.56,1.25-2.62,2.62-2.59c1.38,0.02,2.45,1.09,2.56,2.67
		C119.35,144.07,119.29,145.08,119.29,146.08z"/>
	<path class="st1" d="M119.29,161.24c0,0.96,0.06,1.92-0.01,2.86c-0.12,1.57-1.22,2.64-2.59,2.64c-1.32,0-2.54-1.12-2.6-2.64
		c-0.09-2.01-0.09-4.02,0.01-6.03c0.08-1.55,1.29-2.6,2.65-2.56c1.33,0.04,2.34,1.06,2.53,2.55c0.01,0.1,0.02,0.2,0.02,0.3
		c0,0.96,0,1.91,0,2.87C119.3,161.24,119.29,161.24,119.29,161.24z"/>
	<path class="st1" d="M119.28,176.13c0,1.06,0.07,2.12-0.02,3.17c-0.13,1.55-1.28,2.61-2.64,2.58c-1.27-0.03-2.46-1.11-2.53-2.55
		c-0.1-2.06-0.1-4.12,0.01-6.18c0.08-1.48,1.24-2.49,2.56-2.5c1.37-0.01,2.48,1.06,2.61,2.62
		C119.35,174.21,119.29,175.17,119.28,176.13z"/>
	<path class="st1" d="M59.9,105.24c0.01-2.21,1.01-3.4,2.78-3.31c1.63,0.08,2.48,1.22,2.48,3.31c0,2.23-0.84,3.41-2.49,3.48
		C60.88,108.81,59.89,107.57,59.9,105.24z"/>
</g>
<g>
</g>
<g>
</g>
<g>
</g>
<g>
</g>
<g>
</g>
<g>
</g>
</svg>
