<?xml version="1.0" encoding="utf-8"?>
<!-- Generator: Adobe Illustrator 27.7.0, SVG Export Plug-In . SVG Version: 6.00 Build 0)  -->
<svg version="1.1" id="Layer_1" xmlns="http://www.w3.org/2000/svg" xmlns:xlink="http://www.w3.org/1999/xlink" x="0px" y="0px"
	 viewBox="0 0 180 180" style="enable-background:new 0 0 180 180;" xml:space="preserve">
<style type="text/css">
	.st0{fill:#F6F0FC;}
	.st1{fill:#9C4DD6;}
</style>
<circle class="st0" cx="90" cy="90" r="90"/>
<g>
	<path class="st1" d="M40,87.28c0-14.68,0-29.37,0-44.05c0-0.4-0.01-0.81,0.01-1.21c0.09-1.68,0.7-2.26,2.41-2.26
		c28.02,0,56.04,0,84.06,0c1.79,0,2.4,0.62,2.41,2.45c0.01,2.15,0.01,4.3,0.01,6.45c0,25.81,0,51.61,0,77.41
		c0,0.33,0.03,0.67,0,1.01c-0.06,0.75,0.29,1,1.01,0.99c2.55-0.03,5.11-0.01,7.66-0.01c1.73,0.01,2.3,0.54,2.39,2.26
		c0.07,1.35,0.05,2.69-0.19,4.02c-0.61,3.3-3.48,5.73-6.89,5.89c-0.3,0.01-0.61,0.01-0.91,0.01c-28.05,0-56.11,0-84.16,0
		c-3.88,0-6.85-2.27-7.57-5.79c-0.19-0.95-0.23-1.93-0.23-2.91C40.01,116.78,40,102.02,40,87.28z M43.48,88.58
		c0,14.42,0,28.83,0,43.25c0,0.4-0.01,0.81,0.01,1.21c0.14,2.21,1.81,3.75,3.99,3.69c2.05-0.05,3.53-1.64,3.57-3.85
		c0.01-0.67,0.01-1.35,0.01-2.01c0-2.39,0.43-2.83,2.81-2.83c21.74,0,43.49,0,65.22,0c1.33,0,1.35-0.02,1.35-1.35
		c0-27.35,0-54.71,0-82.06c0-1.33-0.03-1.37-1.35-1.37c-10.52,0-21.04,0-31.55,0c-1.32,0-1.32,0.01-1.33,1.36
		c-0.01,1.77-0.62,2.66-1.79,2.63c-1.11-0.03-1.71-0.94-1.73-2.61c-0.01-1.38-0.01-1.38-1.41-1.38
		c-12.13-0.01-24.27-0.01-36.39-0.01c-1.41,0-1.41,0.01-1.41,1.47C43.48,59.34,43.48,73.96,43.48,88.58z"/>
	<path class="st1" d="M94.87,96.08c-1.17,0-2.35,0.01-3.53,0c-1.45-0.01-2.22-0.63-2.21-1.76c0.01-1.12,0.77-1.74,2.24-1.75
		c2.35-0.01,4.7-0.04,7.05,0.01c0.94,0.02,1.21-0.31,1.19-1.22c-0.05-2.45-0.04-4.91-0.01-7.35c0.02-1.45,1.27-2.29,2.45-1.7
		c0.77,0.38,0.99,1.09,1.01,1.85c0.05,1.58,0.03,3.15,0.03,4.73c0.01,0.94,0.01,1.88,0,2.82c-0.01,0.58,0.24,0.84,0.84,0.87
		c1.07,0.04,1.88,0.01,2.47-1.25c1.35-2.85,4.45-4.16,7.43-3.42c2.97,0.73,5.01,3.33,5.03,6.39c0.01,3.11-2,5.7-5.04,6.48
		c-3.07,0.79-6.23-0.77-7.65-3.79c-0.37-0.79-2.15-1.28-2.83-0.78c-0.59,0.44-0.26,2.66,0.48,2.99c2.13,0.93,3.43,2.54,3.94,4.78
		c0.79,3.49-1.63,7.15-5.11,7.81c-3.79,0.71-7.32-1.69-7.89-5.38c-0.47-3.09,0.99-5.83,3.84-7.16c0.84-0.39,1.37-2.11,0.89-2.88
		c-0.2-0.31-0.52-0.27-0.81-0.27C97.43,96.08,96.15,96.09,94.87,96.08z M101.26,108.46c1.71,0.02,3.19-1.48,3.19-3.22
		c0-1.62-1.44-3.05-3.1-3.09c-1.66-0.03-3.16,1.41-3.2,3.1C98.11,106.87,99.64,108.45,101.26,108.46z M112.18,97.42
		c1.84,0.02,3.16-1.24,3.19-3.03c0.03-1.81-1.27-3.15-3.06-3.16c-1.81-0.01-3.12,1.28-3.13,3.08
		C109.17,96.08,110.45,97.41,112.18,97.42z"/>
	<path class="st1" d="M50.11,61.26c0,2.72,0.01,5.45-0.01,8.17c0,0.43-0.04,0.87-0.15,1.29c-0.21,0.78-0.77,1.17-1.56,1.17
		c-0.83,0.01-1.44-0.38-1.67-1.19c-0.12-0.41-0.12-0.86-0.12-1.29c-0.01-5.38-0.01-10.75-0.01-16.13c0-0.3-0.01-0.61,0.03-0.91
		c0.13-0.99,0.82-1.58,1.78-1.56c0.91,0.03,1.57,0.61,1.66,1.57c0.07,0.73,0.03,1.48,0.03,2.21C50.11,56.82,50.11,59.04,50.11,61.26
		z"/>
	<path class="st1" d="M82.71,53.53c0-0.64-0.04-1.28,0.01-1.91c0.08-1.05,0.8-1.76,1.71-1.77c0.91-0.01,1.69,0.7,1.74,1.73
		c0.06,1.34,0.06,2.68,0,4.02c-0.05,1.04-0.84,1.75-1.75,1.73c-0.88-0.02-1.63-0.77-1.71-1.79C82.67,54.87,82.71,54.2,82.71,53.53z"
		/>
	<path class="st1" d="M86.19,63.6c0,0.71,0.05,1.41-0.01,2.11c-0.09,1-0.79,1.67-1.67,1.7c-0.88,0.03-1.72-0.71-1.77-1.71
		c-0.07-1.34-0.07-2.68-0.01-4.02c0.05-1.05,0.82-1.75,1.73-1.75c0.91,0.01,1.64,0.71,1.73,1.76C86.24,62.32,86.2,62.96,86.19,63.6
		C86.2,63.6,86.19,63.6,86.19,63.6z"/>
	<path class="st1" d="M86.2,73.8c0,0.64,0.04,1.27-0.01,1.91c-0.08,1.05-0.78,1.77-1.7,1.79c-0.88,0.02-1.71-0.73-1.76-1.73
		c-0.06-1.34-0.07-2.68,0-4.02c0.05-1.04,0.83-1.75,1.75-1.73c0.92,0.01,1.63,0.73,1.71,1.77C86.24,72.45,86.2,73.12,86.2,73.8z"/>
	<path class="st1" d="M86.2,83.82c0,0.64,0.03,1.27-0.01,1.91c-0.07,1.11-0.81,1.85-1.75,1.84c-0.88-0.01-1.67-0.77-1.71-1.78
		c-0.05-1.31-0.06-2.61,0-3.92c0.05-1.05,0.79-1.77,1.7-1.79c0.95-0.02,1.69,0.73,1.77,1.83C86.24,82.55,86.2,83.19,86.2,83.82z"/>
	<path class="st1" d="M86.2,93.92c0,0.64,0.03,1.27-0.01,1.91c-0.07,1.1-0.81,1.85-1.76,1.83c-0.88-0.01-1.67-0.77-1.71-1.79
		c-0.05-1.31-0.06-2.61,0-3.92c0.05-1.05,0.79-1.76,1.71-1.78c0.95-0.01,1.69,0.73,1.77,1.83C86.24,92.64,86.2,93.28,86.2,93.92z"/>
	<path class="st1" d="M86.2,104.04c0,0.64,0.04,1.27-0.01,1.91c-0.08,1.05-0.79,1.77-1.7,1.79c-0.88,0.02-1.71-0.73-1.75-1.73
		c-0.06-1.34-0.07-2.68,0-4.02c0.05-1.04,0.83-1.75,1.75-1.73c0.92,0.01,1.63,0.73,1.71,1.78C86.24,102.7,86.2,103.38,86.2,104.04z"
		/>
	<path class="st1" d="M86.2,114.15c0,0.64,0.04,1.28-0.01,1.91c-0.08,1.05-0.81,1.76-1.73,1.76c-0.88,0-1.69-0.75-1.73-1.76
		c-0.06-1.34-0.06-2.68,0.01-4.02c0.05-1.03,0.86-1.73,1.77-1.71c0.89,0.03,1.56,0.71,1.69,1.7c0.01,0.07,0.01,0.13,0.01,0.2
		C86.2,112.87,86.2,113.5,86.2,114.15C86.2,114.15,86.2,114.15,86.2,114.15z"/>
	<path class="st1" d="M86.19,124.07c0,0.71,0.05,1.41-0.01,2.11c-0.09,1.03-0.85,1.74-1.76,1.72c-0.85-0.02-1.64-0.74-1.69-1.7
		c-0.07-1.37-0.07-2.75,0.01-4.12c0.05-0.99,0.83-1.66,1.71-1.67c0.91-0.01,1.65,0.71,1.74,1.75
		C86.24,122.79,86.2,123.43,86.19,124.07z"/>
	<path class="st1" d="M46.6,76.82c0.01-1.47,0.67-2.27,1.85-2.21c1.09,0.05,1.65,0.81,1.65,2.21c0,1.49-0.56,2.27-1.66,2.32
		C47.26,79.2,46.6,78.37,46.6,76.82z"/>
</g>
</svg>
