<?xml version="1.0" encoding="utf-8"?>
<!-- Generator: Adobe Illustrator 27.7.0, SVG Export Plug-In . SVG Version: 6.00 Build 0)  -->
<svg version="1.1" id="Layer_1" xmlns="http://www.w3.org/2000/svg" xmlns:xlink="http://www.w3.org/1999/xlink" x="0px" y="0px"
	 viewBox="0 0 180 180" style="enable-background:new 0 0 180 180;" xml:space="preserve">
<style type="text/css">
	.st0{fill:#F6F0FC;}
	.st1{fill:#9C4DD6;}
</style>
<circle class="st0" cx="90" cy="90" r="90"/>
<g>
	<path class="st1" d="M126.4,40.4c2,0.8,2.8,2.2,2.8,4.4c0,13.8,0,27.5,0,41.3c0,1.6-0.5,2.4-1.5,2.4c-1,0-1.5-0.8-1.5-2.4
		c0-13.6,0-27.1,0-40.7c0-1.9-0.1-2-2-2c-22.4,0-44.9,0-67.3,0c-1.9,0-2,0.1-2,2c0,13.6,0,27.1,0,40.7c0,1.6-0.5,2.4-1.5,2.4
		c-1,0-1.5-0.8-1.5-2.4c0-13.8,0-27.5,0-41.3c0-2.2,0.8-3.6,2.8-4.4C78.5,40.4,102.5,40.4,126.4,40.4z"/>
	<path class="st1" d="M90.5,140.4c-11.4,0-22.8,0-34.2,0c-3,0-4.5-1.4-4.5-4.5c0-13.8,0-27.6,0-41.5c0-0.3,0-0.6,0-0.9
		c0.1-0.9,0.7-1.5,1.5-1.5c0.8,0,1.5,0.6,1.5,1.5c0,0.4,0,0.7,0,1.1c0,13.6,0,27.2,0,40.8c0,1.8,0.2,1.9,2,1.9c22.5,0,44.9,0,67.4,0
		c1.8,0,1.9-0.2,1.9-2c0-13.7,0-27.3,0-41c0-1.6,0.5-2.3,1.6-2.3c1,0,1.5,0.8,1.5,2.3c0,13.9,0,27.8,0,41.7c0,2.9-1.5,4.4-4.4,4.4
		C113.4,140.4,101.9,140.4,90.5,140.4z"/>
	<path class="st1" d="M90.4,75.2c-8.5,0-17,0-25.6,0c-0.3,0-0.5,0-0.8,0c-1.1,0-1.8-0.6-1.8-1.5c-0.1-0.9,0.6-1.5,1.7-1.7
		c0.4,0,0.8,0,1.2,0c16.9,0,33.9,0,50.8,0c0.5,0,1,0,1.6,0.1c0.8,0.2,1.3,0.7,1.3,1.6c0,0.8-0.7,1.4-1.5,1.5c-0.4,0-0.7,0-1.1,0
		C107.6,75.2,99,75.2,90.4,75.2z"/>
	<path class="st1" d="M99.5,83.8c-5.6,0-11.3,0-16.9,0c-0.3,0-0.7,0-1,0c-0.8-0.1-1.4-0.6-1.5-1.4c-0.1-0.8,0.4-1.4,1.3-1.6
		c0.4-0.1,0.8-0.1,1.3-0.1c11.2,0,22.4,0,33.6,0c0.4,0,0.9,0,1.3,0.1c0.8,0.2,1.3,0.8,1.2,1.6c-0.1,0.8-0.6,1.3-1.5,1.4
		c-0.3,0-0.6,0-1,0C110.7,83.8,105.1,83.8,99.5,83.8z"/>
	<path class="st1" d="M99.5,102.3c-5.6,0-11.3,0-16.9,0c-0.3,0-0.7,0-1,0c-0.9-0.1-1.4-0.6-1.5-1.4c-0.1-0.9,0.4-1.4,1.3-1.6
		c0.4-0.1,0.8-0.1,1.3-0.1c11.2,0,22.4,0,33.6,0c0.4,0,0.7,0,1.1,0.1c0.9,0.2,1.5,0.8,1.4,1.6c0,0.8-0.7,1.5-1.6,1.5
		c-0.3,0-0.7,0-1,0C110.6,102.3,105.1,102.3,99.5,102.3z"/>
	<path class="st1" d="M99.4,120.9c-5.6,0-11.2,0-16.8,0c-0.3,0-0.7,0-1,0c-0.9-0.1-1.4-0.6-1.4-1.5c0-0.8,0.4-1.4,1.2-1.5
		c0.4-0.1,0.8-0.1,1.3-0.1c11.2,0,22.4,0,33.7,0c0.5,0,0.9,0,1.3,0.2c0.7,0.2,1.1,0.8,1.1,1.5c-0.1,0.7-0.5,1.3-1.3,1.4
		c-0.3,0.1-0.7,0.1-1.1,0.1C110.7,120.9,105,120.9,99.4,120.9z"/>
	<path class="st1" d="M68.4,92c-1.1,0-2.3,0-3.4,0c-1.7,0-2.7-0.9-2.7-2.5c-0.1-2.5-0.1-4.9,0-7.4c0-1.5,1.1-2.4,2.6-2.5
		c2.4,0,4.8,0,7.2,0c1.5,0,2.4,0.8,2.5,2.3c0.2,2.7,0.2,5.3,0,8c-0.1,1.3-1.1,2-2.4,2.1c-0.1,0-0.1,0-0.2,0C70.8,92,69.6,92,68.4,92
		z M71.5,85.9c0-0.7,0-1.4,0-2.1c0-0.6-0.2-1-0.9-0.9c-1.5,0-2.9,0-4.4,0c-0.6,0-0.9,0.2-0.9,0.8c0,1.5,0,3,0,4.5
		c0,0.6,0.2,0.8,0.8,0.8c1.5,0,3.1,0,4.6,0c0.6,0,0.8-0.3,0.8-0.8C71.5,87.3,71.5,86.6,71.5,85.9z"/>
	<path class="st1" d="M68.4,110.5c-1.2,0-2.3,0-3.5,0c-1.6,0-2.6-0.9-2.7-2.5c-0.1-2.5-0.1-4.9,0-7.4c0-1.5,1-2.5,2.6-2.5
		c2.4,0,4.9,0,7.3,0c1.4,0,2.4,0.9,2.5,2.3c0.2,2.7,0.2,5.3,0,8c-0.1,1.3-1.1,2.1-2.4,2.1c-0.1,0-0.1,0-0.2,0
		C70.8,110.5,69.6,110.5,68.4,110.5z M68.7,101.3c-1,0-1.7,0-2.5,0c-0.6,0-0.8,0.2-0.8,0.8c0,1.5,0,3.1,0,4.6c0,0.5,0.2,0.8,0.8,0.7
		c1.6,0,3.1,0,4.7,0c0.5,0,0.7-0.2,0.7-0.7c0-0.8,0-1.6,0-2.4c0-0.9,0.4-2.1-0.2-2.7C70.7,100.9,69.5,101.4,68.7,101.3z"/>
	<path class="st1" d="M68.4,129.1c-1.1,0-2.3,0-3.4,0c-1.7,0-2.7-0.9-2.7-2.5c-0.1-2.5-0.1-4.9,0-7.4c0-1.5,1.1-2.4,2.6-2.5
		c2.4,0,4.8,0,7.2,0c1.5,0,2.4,0.8,2.5,2.3c0.2,2.7,0.2,5.3,0,8c-0.1,1.3-1.1,2.1-2.4,2.1C70.9,129.1,69.6,129.1,68.4,129.1
		C68.4,129.1,68.4,129.1,68.4,129.1z M71.5,123c0-0.8,0-1.6,0-2.3c0-0.5-0.2-0.8-0.7-0.8c-1.5,0-3.1,0-4.6,0c-0.6,0-0.8,0.2-0.8,0.8
		c0,1.5,0,3.1,0,4.6c0,0.5,0.2,0.8,0.7,0.8c1.5,0,3.1,0,4.6,0c0.6,0,0.8-0.2,0.8-0.8C71.5,124.5,71.5,123.7,71.5,123z"/>
	<path class="st1" d="M79.1,62.8c0,0.8,0,1.7,0,2.5c0,1.1-0.6,1.7-1.5,1.7c-0.9,0-1.5-0.6-1.5-1.7c0-3.8,0-7.6,0-11.4
		c0-1,0.6-1.6,1.6-1.7c1.1,0,2.3-0.1,3.4,0c2,0.1,3.8,1.7,4.2,3.5c0.5,2-0.4,4-2.3,5c-0.8,0.4-0.6,0.7-0.2,1.2
		c0.7,0.7,1.3,1.5,2,2.3c0.7,0.9,0.7,1.8,0,2.4c-0.7,0.6-1.6,0.5-2.3-0.3c-1.1-1.2-2.2-2.4-3.2-3.6C79.2,62.7,79.1,62.7,79.1,62.8z
		 M79.1,56.9c0,1.4,0,1.4,1.1,1.4c1.3,0,2.1-0.6,2.1-1.5c0-0.9-0.8-1.4-2.1-1.4C79.1,55.4,79.1,55.4,79.1,56.9z"/>
	<path class="st1" d="M101.6,67c-3.1,0-5.8-2-6.9-5c-1-2.9-0.1-6.2,2.3-8.1c2.5-2,5.9-2.3,8.6-0.6c0.9,0.6,1.2,1.4,0.7,2.2
		c-0.5,0.8-1.3,1-2.3,0.5c-2.8-1.6-6.2,0-6.6,3.2c-0.2,1.6,0.7,3.3,2.2,4.1c1.6,0.9,3.1,0.7,4.4-0.4c0.9-0.8,1.7-0.9,2.4-0.2
		c0.7,0.7,0.6,1.6-0.3,2.5C104.9,66.5,103.4,67.1,101.6,67z"/>
	<path class="st1" d="M63.9,59.6c0-1.9,0-3.7,0-5.6c0-1.2,0.6-1.8,1.8-1.8c1.4,0,2.9-0.2,4.3,0.2c2.3,0.6,3.9,2.8,3.6,5.2
		c-0.3,2.4-2.3,4.2-4.7,4.3C67,62,67,62,67,63.9c0,0.5,0,0.9,0,1.4c0,1.1-0.5,1.7-1.5,1.8c-1,0-1.5-0.6-1.6-1.8
		C63.9,63.3,63.9,61.5,63.9,59.6z M67,57.1c0,1.8,0,1.8,1.1,1.8c1.5,0,2.3-0.6,2.3-1.7c0-1.1-0.7-1.7-2.2-1.7
		C67,55.4,67,55.4,67,57.1z"/>
	<path class="st1" d="M109.2,59.7c0-1.8,0-3.6,0-5.5c0-1.2,0.5-1.8,1.7-1.8c1.5-0.1,3.1-0.1,4.6,0c1.1,0.1,1.7,0.7,1.7,1.6
		c0,0.9-0.7,1.5-1.8,1.5c-0.7,0-1.5,0-2.2,0c-0.6,0-0.8,0.2-0.8,0.8c-0.1,1.8-0.1,1.8,1.7,1.8c0.5,0,0.9,0,1.4,0
		c0.8,0.1,1.4,0.6,1.4,1.5c0,0.8-0.5,1.5-1.4,1.6c-0.7,0.1-1.4,0.1-2,0c-0.8,0-1.1,0.2-1.1,1c0,1.6,0,1.6,1.6,1.6c0.6,0,1.2,0,1.9,0
		c0.9,0.1,1.5,0.7,1.5,1.5c0,0.8-0.6,1.5-1.5,1.5c-1.7,0-3.3,0-5,0c-1,0-1.5-0.6-1.5-1.7C109.2,63.4,109.2,61.5,109.2,59.7z"/>
	<path class="st1" d="M90.6,109.5c-2.8,0-5.5,0-8.3,0c-0.4,0-0.8,0-1.2-0.1c-0.6-0.3-1-0.8-1-1.4c0-0.6,0.3-1.1,0.9-1.4
		c0.5-0.2,0.9-0.2,1.4-0.2c5.4,0,10.8,0,16.2,0c1.5,0,2.4,0.6,2.4,1.6c0,1-0.8,1.6-2.3,1.6C96,109.5,93.3,109.5,90.6,109.5z"/>
	<path class="st1" d="M90.6,91c-2.7,0-5.5,0-8.2,0c-0.3,0-0.7,0-1-0.1c-0.8-0.2-1.2-0.7-1.3-1.4c-0.1-0.8,0.4-1.3,1.1-1.6
		c0.4-0.2,0.8-0.1,1.2-0.1c5.4,0,10.8,0,16.2,0c1.5,0,2.4,0.6,2.4,1.6c0,1-0.8,1.6-2.3,1.6C96,91,93.3,91,90.6,91z"/>
	<path class="st1" d="M90.6,128.1c-2.7,0-5.5,0-8.2,0c-0.4,0-0.8,0-1.2-0.1c-0.7-0.2-1.1-0.7-1.1-1.4c0-0.7,0.3-1.2,1-1.4
		c0.4-0.2,0.9-0.2,1.3-0.2c5.4,0,10.8,0,16.2,0c1.5,0,2.4,0.6,2.4,1.6c0,1-0.8,1.6-2.3,1.6C96,128.1,93.3,128.1,90.6,128.1z"/>
	<path class="st1" d="M91.5,59.6c0,1.9,0,3.7,0,5.6c0,0.9-0.3,1.6-1.3,1.8c-1.1,0.2-1.9-0.5-1.9-1.8c0-2.4,0-4.8,0-7.2
		c0-1.2,0-2.5,0-3.7c0-1.3,0.7-2,1.6-2c0.9,0,1.5,0.8,1.5,2C91.5,56,91.5,57.8,91.5,59.6z"/>
</g>
</svg>
