<?xml version="1.0" encoding="utf-8"?>
<!-- Generator: Adobe Illustrator 27.7.0, SVG Export Plug-In . SVG Version: 6.00 Build 0)  -->
<svg version="1.1" id="Layer_1" xmlns="http://www.w3.org/2000/svg" xmlns:xlink="http://www.w3.org/1999/xlink" x="0px" y="0px"
	 viewBox="0 0 180 180" style="enable-background:new 0 0 180 180;" xml:space="preserve">
<style type="text/css">
	.st0{fill:#FFFFFF;}
	.st1{fill:#5391FD;}
</style>
<rect class="st0" width="180" height="180"/>
<g>
	<g>
		<path class="st1" d="M140,73.38c-0.54,2.26-1.85,4.01-3.48,5.63c-18.04,18-36.06,36.03-54.07,54.05
			c-0.24,0.24-0.57,0.42-0.66,0.81c0.35,0.19,0.71,0.09,1.05,0.09c10.63,0.01,21.26,0,31.89,0.01c1.98,0,3.27,1.17,3.29,2.94
			c0.02,1.68-1.21,2.99-2.9,3.04c-0.91,0.03-1.82,0.01-2.73,0.01c-13.36,0-26.72-0.02-40.08,0.02c-2.85,0.01-5.16-0.97-7.15-2.97
			c-7.36-7.4-14.75-14.76-22.13-22.14c-4.05-4.06-4.05-9.32,0.01-13.38c19.26-19.26,38.53-38.52,57.77-57.8
			c1.64-1.64,3.37-3.04,5.63-3.67c1.17,0,2.34,0,3.51,0c2.22,0.53,3.96,1.81,5.55,3.41c6.95,7.01,13.92,13.99,20.94,20.94
			c1.65,1.64,3,3.4,3.55,5.69C140,71.17,140,72.27,140,73.38z M125.43,81.44c-0.07-0.4-0.37-0.58-0.59-0.81
			c-4.53-4.53-9.06-9.06-13.58-13.59c-3.98-3.98-7.96-7.95-11.92-11.94c-0.48-0.49-0.78-0.59-1.32-0.05
			c-6.21,6.25-12.45,12.48-18.69,18.69c-0.44,0.44-0.49,0.72-0.02,1.18c8.61,8.59,17.21,17.18,25.79,25.79
			c0.47,0.47,0.75,0.41,1.18-0.03c6.24-6.26,12.5-12.51,18.75-18.77C125.18,81.77,125.3,81.59,125.43,81.44z M101.22,105.55
			c-0.06-0.31-0.32-0.47-0.52-0.68c-8.52-8.53-17.05-17.05-25.56-25.59c-0.56-0.57-0.87-0.5-1.4,0.03c-3.01,3.06-6.04,6.09-9.1,9.1
			c-0.62,0.61-0.61,0.93,0,1.54c3.89,3.83,7.73,7.71,11.6,11.57c4.64,4.64,9.29,9.28,13.92,13.93c0.41,0.41,0.7,0.68,1.25,0.12
			c3.12-3.17,6.28-6.31,9.43-9.46C101,105.95,101.2,105.81,101.22,105.55z M134,71.87c0-1.09-0.44-1.81-1.09-2.46
			c-7.44-7.44-14.88-14.88-22.33-22.32c-0.09-0.09-0.19-0.18-0.28-0.27c-1.31-1.13-2.86-1.11-4.12,0.09
			c-0.87,0.83-1.67,1.73-2.57,2.53c-0.63,0.56-0.54,0.91,0.02,1.46c4.91,4.87,9.79,9.77,14.69,14.66c3.61,3.61,7.22,7.2,10.8,10.83
			c0.58,0.59,0.93,0.59,1.46-0.01c0.78-0.87,1.63-1.67,2.47-2.49C133.68,73.29,133.97,72.56,134,71.87z M71.67,133.89
			c0.97-0.02,1.68-0.3,2.26-0.88c0.83-0.83,1.62-1.7,2.49-2.46c0.68-0.59,0.65-0.97,0.01-1.61c-5.79-5.74-11.54-11.51-17.31-17.28
			c-2.73-2.73-5.48-5.45-8.19-8.21c-0.5-0.51-0.82-0.57-1.32-0.01c-0.78,0.87-1.65,1.66-2.47,2.49c-1.35,1.38-1.42,3.05-0.08,4.4
			c7.52,7.55,15.06,15.07,22.59,22.61C70.26,133.55,70.97,133.89,71.67,133.89z M86.47,120.36c-0.22-0.24-0.4-0.47-0.6-0.67
			c-2.98-2.99-5.97-5.97-8.96-8.96c-5.49-5.49-10.99-10.97-16.45-16.48c-0.68-0.68-1.06-0.65-1.68,0.03
			c-1.14,1.24-2.35,2.43-3.58,3.58c-0.59,0.55-0.5,0.87,0.03,1.39c4.13,4.09,8.23,8.21,12.34,12.32c4.41,4.41,8.82,8.82,13.23,13.23
			c0.35,0.35,0.63,0.76,1.17,0.19c1.35-1.4,2.75-2.76,4.12-4.15C86.23,120.72,86.33,120.55,86.47,120.36z"/>
	</g>
</g>
</svg>
