<?xml version="1.0" encoding="utf-8"?>
<!-- Generator: Adobe Illustrator 27.7.0, SVG Export Plug-In . SVG Version: 6.00 Build 0)  -->
<svg version="1.1" id="Layer_1" xmlns="http://www.w3.org/2000/svg" xmlns:xlink="http://www.w3.org/1999/xlink" x="0px" y="0px"
	 viewBox="0 0 180 180" style="enable-background:new 0 0 180 180;" xml:space="preserve">
<style type="text/css">
	.st0{fill:#FFFFFF;}
	.st1{fill:#5391FD;}
</style>
<rect class="st0" width="180" height="180"/>
<g>
	<path class="st1" d="M65.95,37.79c2.3,0.41,4.61,0.8,6.78,1.72c6.64,2.83,10.22,7.95,11.41,14.98c1.06,6.29,1.44,12.61,1.17,18.96
		c-0.18,4.34-0.83,8.63-1.65,12.91c-0.34,1.76-0.46,3.57-0.39,5.37c0.09,2.21,1.82,3.99,4.03,4.09c1.8,0.08,3.6,0.03,5.4,0.05
		c0.47,0.01,0.95,0.02,1.42,0.11c0.88,0.17,1.41,0.73,1.37,1.63c-0.04,0.9-0.63,1.5-1.51,1.51c-2.64,0.03-5.31,0.32-7.92-0.2
		c-4-0.79-6.48-4.69-6.09-8.98c0.36-3.96,1.3-7.83,1.69-11.78c0.52-5.28,0.71-10.55,0.21-15.85c-0.28-2.94-0.6-5.88-1.23-8.76
		c-1.37-6.22-5.22-10.2-11.36-11.78c-8.49-2.18-16.05-0.27-22.59,5.58c-0.13,0.11-0.25,0.24-0.38,0.34
		c-0.92,0.77-1.9,0.79-2.53,0.06c-0.61-0.7-0.5-1.61,0.35-2.43c4.26-4.12,9.35-6.55,15.21-7.41c0.23-0.03,0.46-0.1,0.69-0.15
		C62.01,37.79,63.98,37.79,65.95,37.79z"/>
	<path class="st1" d="M119.95,37.79c1.96,0.39,3.93,0.71,5.82,1.37c3.71,1.29,7,3.26,9.84,5.97c1.07,1.02,1.26,1.96,0.53,2.71
		c-0.73,0.75-1.68,0.64-2.76-0.38c-2.6-2.47-5.59-4.31-9.03-5.34c-8.72-2.6-16.54-0.92-23.42,5.06c-0.31,0.27-0.59,0.56-0.93,0.79
		c-0.77,0.54-1.64,0.44-2.2-0.2c-0.55-0.63-0.53-1.52,0.14-2.2c1.35-1.39,2.86-2.6,4.5-3.63c3.44-2.16,7.16-3.53,11.2-4.02
		c0.13-0.02,0.26-0.08,0.38-0.12C116.01,37.79,117.98,37.79,119.95,37.79z"/>
	<path class="st1" d="M90,142.21c-11.15-0.07-20.81-4.04-29.11-11.35c-10.25-9.03-16.27-20.53-19.23-33.74
		c-1.12-5.01-1.7-10.1-1.66-15.24c0.01-0.63,0.04-1.24,0.56-1.67c0.48-0.4,1.04-0.5,1.62-0.25c0.66,0.29,0.97,0.83,1,1.53
		c0.07,1.49,0.1,2.98,0.2,4.47c1.02,14.6,5.79,27.69,15.74,38.64c6.36,7,14.08,11.77,23.43,13.65c8.29,1.66,16.28,0.61,23.92-2.96
		c10-4.69,17.15-12.35,22.4-21.9c4.12-7.5,6.49-15.57,7.46-24.05c0.29-2.49,0.47-5,0.45-7.51c0-0.71,0.14-1.36,0.81-1.75
		c1.11-0.66,2.32,0.09,2.37,1.49c0.08,2.24-0.04,4.48-0.25,6.71c-0.62,6.41-1.96,12.67-4.3,18.68
		c-4.77,12.24-12.2,22.36-23.62,29.22c-5.45,3.28-11.37,5.26-17.73,5.85C92.71,142.14,91.36,142.16,90,142.21z"/>
	<path class="st1" d="M115.34,72.95c-3.77-0.02-8.43-1.92-12.37-5.6c-1.08-1-1.08-1.92,0.02-2.95c3.5-3.25,7.59-5.16,12.39-5.51
		c5.95-0.45,11.09,1.41,15.48,5.4c1.3,1.18,1.27,2.07-0.01,3.23C126.92,71.09,122.32,72.95,115.34,72.95z M117.07,69.74
		c3.59-0.03,6.92-1.09,9.92-3.22c0.66-0.47,0.69-0.8,0.01-1.27c-1.15-0.79-2.35-1.48-3.64-2.01c-0.59-0.24-0.91-0.26-0.98,0.54
		c-0.09,1.2-0.5,2.32-1.26,3.28c-1.65,2.05-3.82,2.82-6.34,2.24c-2.54-0.59-4.11-2.29-4.64-4.85c-0.15-0.72-0.31-0.86-0.96-0.5
		c-0.74,0.41-1.46,0.85-2.17,1.32c-0.68,0.45-0.7,0.77-0.02,1.25C110,68.63,113.32,69.71,117.07,69.74z M119.12,63.25
		c0.1-0.76-0.23-1.22-1.24-1.17c-1.21,0.06-2.42,0-3.63,0.18c-0.8,0.12-1.01,0.5-0.98,1.22c0.07,1.55,1.33,2.78,2.91,2.78
		C117.81,66.27,119.08,65.03,119.12,63.25z"/>
	<path class="st1" d="M63.72,72.94c-6.08,0-10.74-1.88-14.71-5.53c-1.13-1.05-1.15-1.96-0.01-3.02c3.53-3.28,7.67-5.15,12.5-5.49
		c5.87-0.42,10.94,1.43,15.3,5.34c1.39,1.24,1.33,2.09-0.06,3.36C72.86,71.13,68.29,72.88,63.72,72.94z M63.03,69.74
		C66.66,69.7,70,68.63,73,66.51c0.59-0.42,0.73-0.72,0.03-1.18c-0.68-0.45-1.35-0.9-2.07-1.29c-0.68-0.37-0.95-0.31-1.13,0.55
		c-0.58,2.73-2.87,4.71-5.46,4.85c-3.62,0.2-6.16-1.88-6.75-5.61c-0.11-0.72-0.3-0.85-0.95-0.59c-1.23,0.5-2.4,1.12-3.48,1.89
		c-1,0.71-1.01,0.8-0.03,1.48C56.1,68.69,59.39,69.7,63.03,69.74z M63.28,62.11c-0.54,0-1.08,0-1.62,0c-0.43,0-0.69,0.19-0.75,0.65
		c-0.16,1.16,0.12,2.16,1.07,2.89c0.94,0.72,1.98,0.84,3.05,0.35c1.07-0.49,1.63-1.37,1.69-2.56c0.04-0.67-0.17-1.06-0.92-1.16
		C64.96,62.16,64.13,62.07,63.28,62.11z"/>
	<path class="st1" d="M108.99,87.47c0.02-0.64,0.25-1.19,0.87-1.49c0.64-0.31,1.27-0.23,1.81,0.23c1.64,1.37,3.28,2.74,4.91,4.12
		c2.59,2.19,5.18,4.38,7.77,6.57c0.23,0.2,0.47,0.39,0.68,0.62c0.94,1,0.65,2.3-0.65,2.75c-0.8,0.27-1.63,0.46-2.46,0.63
		c-0.77,0.16-0.96,0.42-0.5,1.14c1.08,1.68,2.09,3.41,3.13,5.12c0.12,0.2,0.26,0.4,0.36,0.61c0.43,0.89,0.23,1.8-0.51,2.24
		c-0.73,0.44-1.68,0.24-2.21-0.59c-1.17-1.83-2.28-3.69-3.42-5.54c-0.61-1-0.65-1-1.42-0.15c-0.55,0.6-1.04,1.26-1.64,1.81
		c-1.02,0.95-2.39,0.61-2.71-0.73c-1.36-5.67-2.65-11.35-3.96-17.03C109.02,87.68,109.01,87.58,108.99,87.47z M113.27,91.78
		c0.7,3.03,1.34,5.76,1.97,8.49c0.12,0.54,0.36,0.67,0.69,0.18c0.91-1.34,2.14-2.12,3.75-2.34c0.67-0.09,0.59-0.42,0.16-0.78
		c-0.52-0.44-1.03-0.88-1.55-1.32C116.7,94.67,115.1,93.33,113.27,91.78z"/>
	<path class="st1" d="M105.14,114.19c-0.02,1.2-0.91,1.91-1.94,1.6c-0.61-0.18-1.18-0.51-1.75-0.81c-2.23-1.15-4.47-2.29-6.68-3.47
		c-0.67-0.36-1.18-0.34-1.72,0.21c-0.57,0.57-1.19,1.11-1.83,1.62c-0.89,0.72-1.57,0.71-2.47-0.02c-0.63-0.51-1.25-1.05-1.83-1.62
		c-0.51-0.5-0.99-0.56-1.63-0.22c-2.46,1.31-4.93,2.57-7.4,3.85c-0.27,0.14-0.54,0.29-0.83,0.39c-0.9,0.33-1.72,0.03-2.07-0.74
		c-0.36-0.77-0.12-1.67,0.7-2.1c3.33-1.77,6.67-3.49,10.02-5.22c0.69-0.35,1.33-0.13,1.88,0.34c0.62,0.53,1.25,1.05,1.83,1.62
		c0.44,0.44,0.77,0.39,1.19-0.02c0.58-0.57,1.21-1.09,1.83-1.61c0.63-0.53,1.32-0.63,2.07-0.23c3.22,1.68,6.44,3.35,9.66,5.03
		C104.79,113.11,105.17,113.6,105.14,114.19z"/>
	<path class="st1" d="M89.74,123c-1.25,0-2.51,0.02-3.76-0.01c-1.24-0.03-1.94-0.63-1.95-1.61c-0.01-1,0.65-1.64,1.9-1.66
		c2.58-0.04,5.15-0.04,7.73,0c1.24,0.02,1.91,0.68,1.9,1.67c-0.01,0.98-0.71,1.58-1.95,1.61C92.31,123.02,91.02,123,89.74,123z"/>
	<path class="st1" d="M106.38,84.51c-0.92-0.01-1.69-0.77-1.7-1.68c-0.01-0.95,0.79-1.72,1.77-1.7c0.94,0.02,1.69,0.75,1.69,1.67
		C108.16,83.74,107.35,84.52,106.38,84.51z"/>
	<path class="st1" d="M62.72,111.5c0.01,0.93-0.82,1.74-1.76,1.72c-0.9-0.02-1.66-0.8-1.66-1.71c0-0.94,0.71-1.68,1.65-1.71
		C61.9,109.77,62.72,110.55,62.72,111.5z"/>
	<path class="st1" d="M66.4,91.76c0.02,0.93-0.69,1.69-1.62,1.72c-1,0.04-1.77-0.66-1.79-1.64c-0.02-0.93,0.68-1.7,1.6-1.74
		C65.58,90.06,66.38,90.8,66.4,91.76z"/>
</g>
</svg>
