<?xml version="1.0" encoding="utf-8"?>
<!-- Generator: Adobe Illustrator 27.7.0, SVG Export Plug-In . SVG Version: 6.00 Build 0)  -->
<svg version="1.1" id="Layer_1" xmlns="http://www.w3.org/2000/svg" xmlns:xlink="http://www.w3.org/1999/xlink" x="0px" y="0px"
	 viewBox="0 0 180 180" style="enable-background:new 0 0 180 180;" xml:space="preserve">
<style type="text/css">
	.st0{fill:#F6F0FC;}
	.st1{fill:#9C4DD6;}
</style>
<circle class="st0" cx="90" cy="90" r="90"/>
<g>
	<path class="st1" d="M40.02,79.78c0-8.1,0-16.21,0-24.31c0-3.2,1.03-4.53,4.1-5.42c8.58-2.46,16.49-6.44,24.3-10.64
		c6.22-3.35,12.27-6.99,18.21-10.81c2.15-1.38,4.13-1.34,6.33,0.08c11.32,7.31,22.97,14.02,35.52,19.05
		c2.42,0.97,4.89,1.79,7.41,2.47c2.81,0.76,4.09,2.32,4.1,5.19c0.02,16.26,0.01,32.51,0.01,48.77c0,1.32-0.44,2.51-1.02,3.66
		c-3.53,7.03-8.06,13.39-13.22,19.31c-8.41,9.65-18.26,17.47-29.74,23.2c-0.59,0.3-1.24,0.5-1.8,0.85
		c-2.93,1.86-5.71,1.42-8.72-0.05c-19.65-9.56-34.24-24.27-44.59-43.38c-0.65-1.2-0.93-2.43-0.92-3.8
		C40.04,95.9,40.02,87.84,40.02,79.78z M131.04,81.22c0-7.16-0.02-14.31,0.02-21.47c0.01-1.02-0.33-1.51-1.31-1.83
		c-5.27-1.75-10.34-3.99-15.31-6.45c-7.82-3.87-15.39-8.2-22.76-12.86c-1.06-0.67-1.86-0.76-2.95-0.04
		c-2.21,1.47-4.5,2.81-6.79,4.15c-10.1,5.93-20.4,11.48-31.54,15.27c-1.01,0.34-1.1,0.96-1.1,1.84c0.01,14.17,0.01,28.34,0,42.51
		c0,0.83,0.15,1.58,0.56,2.3c9.31,16.28,21.91,29.16,38.83,37.61c1.11,0.55,1.96,0.5,3.03-0.03c16.86-8.43,29.42-21.29,38.73-37.51
		c0.44-0.77,0.6-1.56,0.6-2.44C131.04,95.25,131.04,88.23,131.04,81.22z"/>
	<path class="st1" d="M85.62,107.25c-1.26,0.04-2.32-0.45-3.19-1.31c-4.53-4.52-9.07-9.02-13.56-13.58
		c-1.86-1.89-1.78-4.67,0.07-6.5c1.84-1.82,4.58-1.86,6.5,0.02c3.09,3.01,6.14,6.05,9.14,9.15c0.84,0.87,1.31,0.81,2.13-0.02
		c6-6.06,12.05-12.08,18.08-18.11c1.4-1.41,3.06-1.9,4.93-1.21c1.79,0.66,2.86,1.99,3.08,3.91c0.16,1.4-0.26,2.63-1.26,3.63
		c-7.57,7.58-15.14,15.15-22.72,22.72C87.95,106.82,86.88,107.3,85.62,107.25z"/>
</g>
</svg>
