<?xml version="1.0" encoding="utf-8"?>
<!-- Generator: Adobe Illustrator 27.7.0, SVG Export Plug-In . SVG Version: 6.00 Build 0)  -->
<svg version="1.1" id="Layer_1" xmlns="http://www.w3.org/2000/svg" xmlns:xlink="http://www.w3.org/1999/xlink" x="0px" y="0px"
	 viewBox="0 0 180 180" style="enable-background:new 0 0 180 180;" xml:space="preserve">
<style type="text/css">
	.st0{fill:#FFFFFF;}
	.st1{fill:#5391FD;}
</style>
<rect class="st0" width="180" height="180"/>
<g>
	<path class="st1" d="M40,127.5c0-29.14,0-58.29,0-87.43c0.52-0.02,1.04-0.06,1.56-0.06c17.76,0,35.51,0,53.27,0
		c10.41,0,20.81,0,31.22,0c1.44,0,1.45,0.01,1.45,1.47c0,3.25,0,6.5,0,9.76c0,1.24,0.03,1.26,1.27,1.27c3.38,0,6.76,0.02,10.15-0.01
		c0.79-0.01,1.16,0.26,1.08,1.07c-0.02,0.23,0,0.45,0,0.68c0,28.13,0,56.26,0,84.39c0,0.45-0.04,0.91-0.06,1.36
		c-29.14,0-58.29,0-87.43,0c-0.02-3.64-0.04-7.28-0.06-10.92c-0.01-1.51,0-1.5-1.51-1.51C47.28,127.55,43.64,127.53,40,127.5z
		 M83.81,46.38c-12.03,0-24.07,0-36.1,0c-1.4,0-1.4,0-1.4,1.42c0,23.97,0,47.94,0,71.91c0,1.47,0,1.47,1.45,1.47
		c23.97,0,47.94,0,71.91,0c1.45,0,1.45,0,1.45-1.47c0-23.94,0-47.88,0-71.82c0-1.52,0-1.52-1.5-1.52
		C107.69,46.38,95.75,46.38,83.81,46.38z"/>
</g>
</svg>
