<?xml version="1.0" encoding="utf-8"?>
<!-- Generator: Adobe Illustrator 27.7.0, SVG Export Plug-In . SVG Version: 6.00 Build 0)  -->
<svg version="1.1" id="Layer_1" xmlns="http://www.w3.org/2000/svg" xmlns:xlink="http://www.w3.org/1999/xlink" x="0px" y="0px"
	 viewBox="0 0 180 180" style="enable-background:new 0 0 180 180;" xml:space="preserve">
<style type="text/css">
	.st0{fill:#F6F0FC;}
	.st1{fill:#9C4DD6;}
</style>
<circle class="st0" cx="90" cy="90" r="90"/>
<g>
	<path class="st1" d="M69.6,140c-0.6-0.6-0.8-1.3-0.8-2.2c0-3.1,0-6.2,0-9.3c0-0.9-0.3-1.2-1.2-1.2c-8.3,0-16.6,0-24.9,0
		c-0.6,0-1.1,0-1.6-0.2c-0.9-0.4-1-1.1-1-1.9c0.1-1-0.4-2.3,1-2.9c0.8-0.4,1.8,0.1,2,1.1c0.1,0.6,0.4,0.8,1,0.8c1.1,0,2.2,0,3.3,0
		c0.7,0,1-0.2,0.9-0.9c0-0.8,0-1.6,0-2.4c0-1.1,0.7-1.7,1.6-1.7c0.9,0,1.6,0.7,1.6,1.7c0,0.8,0,1.7,0,2.5c0,0.6,0.2,0.8,0.8,0.8
		c5.2,0,10.5,0,15.7,0c0.7,0,0.8-0.4,0.8-0.9c0-1.8,0.3-3.4,1.1-5c1.2-2.2,3-3.8,5.3-4.6c1-0.4,2-0.7,3-1c0.8-0.2,0.8-0.6,0.4-1.2
		c-0.8-1.3-1.9-2.2-3.3-2.7c-2.6-0.9-5.2-1.7-7.9-2.6c-0.5-0.2-0.7-0.1-1,0.4c-2.6,4.1-7.6,4.1-10.1,0c-0.3-0.5-0.6-0.5-1-0.4
		c-2.6,0.9-5.2,1.7-7.8,2.6c-2.7,1-4.3,3.2-4.3,6.2c0,0.7,0,1.5,0,2.2c-0.1,0.8-0.6,1.3-1.5,1.3c-0.8,0-1.5-0.4-1.5-1.2
		c-0.2-3-0.1-5.9,1.9-8.4c1.3-1.6,2.9-2.6,4.8-3.2c2.5-0.8,5.1-1.7,7.6-2.5c0.8-0.3,1.1-0.6,1.1-1.5c0.1-1.3-0.3-2.1-1.3-3
		c-2.5-1.9-3.8-4.6-3.9-7.7c-0.2-2.8-0.3-5.7,0.1-8.6c0.7-4.4,3.1-7.4,7.3-8.9c4.2-1.5,7.9-0.5,11.2,2.4c0.2,0.2,0.4,0.4,0.6,0.6
		c0.3,0.4,0.6,0.3,0.9-0.1c1.5-2.3,3.7-3.4,6.2-4.2c2.3-0.7,4.6-1.5,7-2.3c0.6-0.2,0.9-0.5,0.9-1.2c0-0.5,0-0.9,0-1.4
		c0-0.6-0.2-0.9-0.6-1.2C80.6,64,79,61,79,57c0-2,0-4.1,0-6.1c0-5.5,4.3-10.3,9.7-10.8c5.8-0.6,10.9,3.1,12.1,8.7
		c0.2,1.1,0.2,2.1,0.2,3.2c-0.1,2.5,0.2,4.9-0.2,7.4c-0.5,2.9-2,5.1-4.3,6.9c-0.7,0.5-1.2,2.7-0.8,3.4c0.2,0.3,0.5,0.4,0.8,0.5
		c2.5,0.8,5.1,1.7,7.6,2.5c2.2,0.7,4.1,1.8,5.4,3.8c0.5,0.8,0.9,0.3,1.2-0.1c5.5-5.6,14.7-4,18,3.1c0.6,1.2,0.9,2.5,1,3.8
		c0.1,2.9,0.2,5.7-0.1,8.6c-0.4,3-1.8,5.4-4.2,7.3c-0.8,0.6-1.3,2.6-0.8,3.5c0.2,0.4,0.6,0.4,0.9,0.5c2.2,0.7,4.4,1.5,6.6,2.1
		c4.1,1.1,6.8,3.5,7.9,7.7c0,1.6,0,3.1,0,4.7c-0.5,0.7-1.1,1.1-2,0.8c-0.8-0.3-1-1-1-1.8c0-0.6,0-1.1,0-1.7
		c-0.1-3.1-1.7-5.3-4.6-6.3c-2.5-0.8-4.9-1.6-7.4-2.4c-0.5-0.2-0.8-0.1-1.2,0.4c-2.4,4-7.6,4-10,0c-0.3-0.5-0.6-0.6-1.2-0.4
		c-2.5,0.8-5.1,1.7-7.6,2.5c-1.5,0.5-2.6,1.4-3.5,2.7c-0.4,0.7-0.4,1.1,0.4,1.3c1,0.3,1.9,0.6,2.9,0.9c3.1,1.2,5.2,3.3,6.1,6.6
		c0.3,1,0.4,2,0.3,3.1c0,0.6,0.2,0.8,0.8,0.8c5.2,0,10.5,0,15.7,0c0.6,0,0.8-0.2,0.8-0.8c0-0.8,0-1.6,0-2.4c0-1.2,0.6-1.8,1.6-1.8
		c0.9,0,1.6,0.7,1.6,1.8c0,0.8,0,1.7,0,2.5c0,0.5,0.2,0.7,0.7,0.7c1.3,0,2.5,0,3.8,0c0.3,0,0.5-0.1,0.7-0.4c0.6-1.8,1.6-2,3-0.7
		c0,1.1,0,2.2,0,3.3c-0.5,0.9-1.4,1-2.3,1c-6.2,0-12.4,0-18.6,0c-2.2,0-4.5,0-6.7,0c-0.8,0-1.1,0.3-1,1c0,0.5,0,1.1-0.1,1.7
		c-0.1,0.6-0.5,1.1-1.1,1.2c-0.6,0.1-1.1,0-1.5-0.4c-0.4-0.4-0.5-1-0.5-1.5c0-2.3,0-4.6,0-6.8c0-2.6-1.5-4.9-4-5.7
		c-2.7-1-5.4-1.8-8.1-2.7c-0.4-0.1-0.7-0.1-0.9,0.3c-1.9,3.9-7.8,4.3-10.1,0c-0.2-0.4-0.5-0.5-0.9-0.4c-2.7,0.9-5.5,1.7-8.2,2.8
		c-2.3,0.9-3.8,2.7-3.8,5.2c-0.1,4.7,0,9.5-0.1,14.2c0,0.6,0.3,0.9,0.9,0.8c1,0,2-0.1,3,0c1,0.1,1.3-0.2,1.3-1.2c-0.1-2.3,0-4.7,0-7
		c0-0.6,0.1-1.2,0.7-1.5c0.5-0.3,1-0.4,1.6-0.1c0.6,0.3,0.9,0.9,0.9,1.5c0,2.4,0,4.9,0,7.3c0,0.8,0.2,1.1,1,1.1c5.9,0,11.8,0,17.8,0
		c0.8,0,1-0.2,1-1c0-2.4,0-4.7,0-7.1c0-1.2,0.6-2,1.5-2c0.9,0,1.5,0.7,1.5,2c0,2.4,0,4.8,0,7.2c0,0.7,0.2,0.9,0.9,0.9c1,0,2,0,3,0
		c0.7,0,1.2-0.1,1.4-0.9c0.1-0.7,0.7-1,1.5-1c0.7,0,1.3,0.4,1.4,1c0.3,1.4,0.5,2.8-0.6,3.9C96.9,140,83.2,140,69.6,140z M72.3,86.8
		c0,1.2,0,2.3,0,3.5c0,0.7,0.3,0.9,0.9,0.9c1.3,0,2.7,0,4,0c1.7,0,1.7,0,2-1.6c1.2-5.8,6.9-9.7,12.7-8.6c4.7,0.9,8,4.2,9,9.2
		c0.2,0.8,0.5,1.1,1.3,1c1.5-0.1,3-0.1,4.5,0c0.9,0,1.1-0.3,1.1-1.1c0-3-0.3-6,0.3-8.9c0-0.2,0-0.5-0.1-0.8c-0.5-2.2-1.9-3.8-4-4.5
		c-2.6-0.9-5.2-1.7-7.9-2.6c-0.5-0.2-0.8-0.1-1.1,0.4c-2.4,4-7.6,4-10,0c-0.3-0.5-0.6-0.6-1.1-0.4c-1.8,0.6-3.7,1.2-5.5,1.9
		c-1,0.4-2.1,0.7-3.1,1.1c-1.9,0.9-3.6,3.4-3.3,5C72.3,83.1,72.3,84.9,72.3,86.8z M98,54.2c0-1.5,0-2.9-0.2-4.4
		c-0.5-3.7-3.9-6.6-7.7-6.7c-3.8-0.1-7.4,2.9-7.8,6.7c-0.3,2.9-0.3,5.8,0,8.6c0.4,3.8,3.8,6.7,7.7,6.8c3.9,0,7.4-3,7.8-6.8
		C98,57,97.9,55.6,98,54.2z M98,95c-0.1-1.4,0-2.9-0.2-4.3C97.3,86.8,94,84,90.1,84c-4,0-7.3,2.8-7.8,6.7c-0.3,2.8-0.3,5.6,0,8.5
		c0.4,4,3.8,6.9,7.8,6.9c4,0,7.3-3,7.8-6.8C98,97.8,97.9,96.4,98,95z M126.7,87.5c0-1.5,0-2.6,0-3.8c-0.1-4.3-3.6-7.7-7.9-7.7
		c-4.3,0-7.8,3.4-7.8,7.7c0,2.2,0,4.4,0,6.5c0,4.2,3,7.4,7.4,7.8c3.9,0.3,7.3-2.5,8.1-6.1C126.9,90.4,126.6,88.8,126.7,87.5z
		 M69.1,87.5c0-1.4,0-2.5,0-3.6c-0.1-4.3-3.6-7.8-7.9-7.8c-4.3,0-7.8,3.5-7.8,7.8c0,2.1,0,4.3,0,6.4c0,4.2,3,7.4,7.4,7.8
		c3.9,0.3,7.3-2.5,8.1-6.1C69.3,90.4,69,88.8,69.1,87.5z M105.4,94.4c-1.5,0-2.4,0-3.4,0c-0.7,0-0.9,0.2-0.9,0.9c0,1,0,2,0,2.9
		c0,3.6-1.5,6.4-4.3,8.6c-0.8,0.6-1.2,1.2-1,2.2c0,0.3,0,0.6,0,0.9c0,1.3,1.1,1,1.7,1.3c0.6,0.3,0.8-0.2,1-0.6
		c1.2-2.5,3.2-4.1,5.8-4.9c2.5-0.8,5.1-1.7,7.6-2.5c0.5-0.2,1.2-0.2,1.2-0.9c-0.1-1,0.5-2.2-0.6-3c-0.9-0.6-1.9-1.3-2.3-2.3
		C109,94.5,107.3,93.9,105.4,94.4z M75.3,94.4c-0.9,0-1.8,0-2.7,0c-0.8,0-1.2,0.2-1.5,0.9c-0.6,1.3-1.5,2.5-2.7,3.3
		c-1.2,0.8-1.5,1.7-1.4,3c0,0.8,0.3,1.2,1.1,1.5c2.6,0.8,5.2,1.7,7.8,2.5c2.5,0.8,4.4,2.4,5.7,4.8c0.2,0.3,0.3,0.9,0.8,0.8
		c0.7-0.1,1.4-0.2,1.9-0.7c0.5-0.5,0-2.9-0.6-3.4c-2.5-1.8-4.1-4.3-4.5-7.4c-0.2-1.5-0.1-3-0.1-4.5c0-0.6-0.2-0.9-0.8-0.9
		C77.2,94.4,76.3,94.4,75.3,94.4z M63.8,102.8C63.8,102.8,63.8,102.8,63.8,102.8c0-0.3,0-0.5,0-0.8c0.1-0.8-0.2-1.1-1.1-0.9
		c-0.6,0.1-1.2,0-1.7,0.1c-0.8,0.1-1.8-0.6-2.2,0.1c-0.4,0.6-0.1,1.6-0.1,2.4c0,0.1,0,0.3,0,0.4c0.2,1.3,1.4,2.3,2.7,2.2
		c1.3-0.1,2.3-1.1,2.4-2.5C63.9,103.6,63.8,103.2,63.8,102.8z M121.4,103c0-0.2,0-0.3,0-0.5c0-1.4,0-1.4-1.4-1.3
		c-0.4,0-0.9-0.1-1.3,0c-0.8,0.2-1.9-0.7-2.4,0.2c-0.4,0.7-0.1,1.7-0.1,2.6c0,0.1,0,0.1,0,0.2c0.2,1.1,1.2,2.1,2.4,2.1
		c1.2,0.1,2.2-0.6,2.6-1.8C121.4,104,121.4,103.5,121.4,103z M92.6,70C92.6,70,92.6,70,92.6,70c0-0.3,0-0.7,0-1
		c0.1-0.7-0.2-1-0.9-0.8c-0.6,0.1-1.2,0.1-1.7,0.2c-0.8,0-1.8-0.6-2.2,0.1c-0.4,0.6-0.1,1.6-0.1,2.4c0,0.1,0,0.2,0,0.3
		c0.1,1.4,1.1,2.3,2.5,2.3c1.4,0,2.4-0.9,2.5-2.3C92.6,70.8,92.6,70.4,92.6,70z M92.6,110.8C92.6,110.8,92.6,110.8,92.6,110.8
		c0-0.3,0-0.5,0-0.8c0.1-0.9-0.2-1.2-1.1-1c-1,0.3-2.1,0.1-3.1,0c-0.6-0.1-0.9,0-0.8,0.7c0,0.7,0,1.5,0,2.2c0.1,1.4,1.1,2.3,2.5,2.3
		c1.4,0,2.4-0.9,2.5-2.3C92.6,111.6,92.6,111.2,92.6,110.8z"/>
</g>
</svg>
