<?xml version="1.0" encoding="utf-8"?>
<!-- Generator: Adobe Illustrator 27.7.0, SVG Export Plug-In . SVG Version: 6.00 Build 0)  -->
<svg version="1.1" id="Layer_1" xmlns="http://www.w3.org/2000/svg" xmlns:xlink="http://www.w3.org/1999/xlink" x="0px" y="0px"
	 viewBox="0 0 180 180" style="enable-background:new 0 0 180 180;" xml:space="preserve">
<style type="text/css">
	.st0{fill:#F6F0FC;}
	.st1{fill:#9C4DD6;}
</style>
<circle class="st0" cx="90" cy="90" r="90"/>
<g>
	<path class="st1" d="M40,86.51c0.32-2.74,0.69-5.47,1.37-8.15c1.96-7.69,5.47-14.58,10.67-20.6c6.28-7.27,14.01-12.32,23.18-15.19
		c6-1.88,12.15-2.56,18.39-2.13c8.33,0.57,16.04,3.15,23.07,7.66c0.87,0.56,1.27,0.5,1.8-0.37c0.72-1.19,1.57-2.31,2.39-3.45
		c0.35-0.49,0.77-0.92,1.45-0.8c0.64,0.12,0.87,0.67,1.02,1.2c1.25,4.44,2.51,8.88,3.7,13.34c0.4,1.49-0.55,2.78-2.08,2.93
		c-3.68,0.37-7.37,0.68-11.06,1.01c-0.94,0.08-1.88,0.19-2.82,0.2c-1.4,0.01-1.89-0.85-1.13-2.05c0.8-1.27,1.65-2.5,2.54-3.7
		c0.49-0.66,0.42-0.99-0.29-1.43c-5.16-3.22-10.74-5.32-16.76-6.02c-11.37-1.32-21.78,1.29-30.92,8.31
		c-7.98,6.13-13.12,14.16-15.33,23.99c-1.63,7.25-1.25,14.45,0.92,21.56c2.06,6.75,5.62,12.57,10.65,17.47
		c5.82,5.67,12.75,9.36,20.73,11.03c0.32,0.07,0.64,0.13,0.95,0.21c2.46,0.59,3.88,2.61,3.42,4.86c-0.47,2.32-2.58,3.68-5.11,3.2
		c-6.37-1.2-12.3-3.51-17.74-7.05c-8.55-5.56-14.95-12.95-19-22.33c-2.1-4.87-3.4-9.95-3.88-15.24c-0.02-0.22-0.09-0.44-0.13-0.66
		C40,91.71,40,89.11,40,86.51z"/>
	<path class="st1" d="M90.82,74.89c0,4.55,0.01,9.1-0.02,13.66c0,0.72,0.24,1.1,0.88,1.43c8.07,4.14,16.12,8.31,24.18,12.48
		c0.38,0.19,0.76,0.38,1.12,0.6c1.63,1.01,2.19,2.88,1.34,4.47c-0.87,1.63-2.76,2.26-4.52,1.41c-1.82-0.87-3.59-1.83-5.38-2.75
		c-7.59-3.92-15.18-7.88-22.8-11.75c-1.15-0.59-1.55-1.26-1.54-2.55c0.06-9.85,0.03-19.7,0.04-29.56c0-0.58,0.03-1.17,0.14-1.74
		c0.32-1.7,1.87-2.91,3.49-2.76c1.76,0.16,3.06,1.53,3.07,3.32C90.83,65.72,90.81,70.3,90.82,74.89
		C90.81,74.89,90.82,74.89,90.82,74.89z"/>
	<path class="st1" d="M113.41,134.23c-2.18,0.03-3.73-1.05-4.32-2.65c-0.59-1.63-0.1-3.54,1.25-4.58c1.03-0.79,2.14-1.48,3.32-2.04
		c1.59-0.76,3.56-0.32,4.72,0.98c1.19,1.34,1.51,3.37,0.48,4.79C117.42,132.71,115.34,133.8,113.41,134.23z"/>
	<path class="st1" d="M133.12,110.81c-2.97-0.01-4.92-2.56-4.16-5.21c0.3-1.03,0.64-2.05,1.06-3.03c0.91-2.15,3.1-3.11,5.21-2.33
		c2.06,0.76,3.13,2.87,2.51,5.06c-0.29,1.03-0.66,2.04-1.08,3.03C135.97,109.95,134.67,110.75,133.12,110.81z"/>
	<path class="st1" d="M98.61,139.66c-2.3,0-3.97-1.36-4.35-3.29c-0.37-1.89,0.59-3.82,2.39-4.54c1.39-0.56,2.87-0.87,4.36-0.95
		c1.87-0.11,3.61,1.35,4.02,3.2c0.41,1.89-0.52,3.86-2.28,4.6C101.34,139.27,99.82,139.48,98.61,139.66z"/>
	<path class="st1" d="M125,124.24c-3.17-0.01-5.14-3.26-3.67-5.97c0.7-1.28,1.66-2.42,2.73-3.41c1.38-1.27,3.5-1.29,5.05-0.19
		c1.52,1.08,2.16,3.14,1.35,4.86c-0.72,1.54-1.83,2.83-3.11,3.95C126.68,124.07,125.82,124.29,125,124.24z"/>
	<path class="st1" d="M139.99,89.98c0,0.55,0.02,1.11,0,1.66c-0.08,2-1.7,3.68-3.71,3.87c-1.96,0.19-3.95-1.22-4.34-3.16
		c-0.29-1.47-0.35-2.97-0.08-4.46c0.4-2.14,2.22-3.54,4.34-3.38c2.08,0.16,3.72,1.88,3.79,4.01C140,89,139.99,89.49,139.99,89.98z"
		/>
	<path class="st1" d="M132.31,69.26c1.62-0.02,2.72,0.43,3.42,1.44c1.11,1.59,1.81,3.38,1.91,5.33c0.08,1.7-1.08,3.24-2.68,3.8
		c-1.64,0.58-3.56,0.11-4.55-1.3c-1.06-1.5-1.71-3.24-1.83-5.06C128.41,71.05,130.26,69.25,132.31,69.26z"/>
</g>
</svg>
